%TF.GenerationSoftware,KiCad,Pcbnew,(5.1.9)-1*%
%TF.CreationDate,2021-02-12T16:43:18+01:00*%
%TF.ProjectId,TEF6686 ESP32,54454636-3638-4362-9045-535033322e6b,rev?*%
%TF.SameCoordinates,Original*%
%TF.FileFunction,Legend,Top*%
%TF.FilePolarity,Positive*%
%FSLAX46Y46*%
G04 Gerber Fmt 4.6, Leading zero omitted, Abs format (unit mm)*
G04 Created by KiCad (PCBNEW (5.1.9)-1) date 2021-02-12 16:43:18*
%MOMM*%
%LPD*%
G01*
G04 APERTURE LIST*
%ADD10C,0.150000*%
%ADD11C,0.120000*%
%ADD12C,0.250000*%
G04 APERTURE END LIST*
D10*
X93130714Y-33582904D02*
X93797380Y-33392428D01*
X93321190Y-33201952D01*
X93797380Y-33011476D01*
X93130714Y-32821000D01*
X93130714Y-32535285D02*
X93797380Y-32344809D01*
X93321190Y-32154333D01*
X93797380Y-31963857D01*
X93130714Y-31773380D01*
X93130714Y-31487666D02*
X93797380Y-31297190D01*
X93321190Y-31106714D01*
X93797380Y-30916238D01*
X93130714Y-30725761D01*
X93702142Y-30344809D02*
X93749761Y-30297190D01*
X93797380Y-30344809D01*
X93749761Y-30392428D01*
X93702142Y-30344809D01*
X93797380Y-30344809D01*
X93130714Y-29868619D02*
X94130714Y-29868619D01*
X93178333Y-29868619D02*
X93130714Y-29773380D01*
X93130714Y-29582904D01*
X93178333Y-29487666D01*
X93225952Y-29440047D01*
X93321190Y-29392428D01*
X93606904Y-29392428D01*
X93702142Y-29440047D01*
X93749761Y-29487666D01*
X93797380Y-29582904D01*
X93797380Y-29773380D01*
X93749761Y-29868619D01*
X93749761Y-28582904D02*
X93797380Y-28678142D01*
X93797380Y-28868619D01*
X93749761Y-28963857D01*
X93654523Y-29011476D01*
X93273571Y-29011476D01*
X93178333Y-28963857D01*
X93130714Y-28868619D01*
X93130714Y-28678142D01*
X93178333Y-28582904D01*
X93273571Y-28535285D01*
X93368809Y-28535285D01*
X93464047Y-29011476D01*
X92797380Y-27630523D02*
X92797380Y-28106714D01*
X93273571Y-28154333D01*
X93225952Y-28106714D01*
X93178333Y-28011476D01*
X93178333Y-27773380D01*
X93225952Y-27678142D01*
X93273571Y-27630523D01*
X93368809Y-27582904D01*
X93606904Y-27582904D01*
X93702142Y-27630523D01*
X93749761Y-27678142D01*
X93797380Y-27773380D01*
X93797380Y-28011476D01*
X93749761Y-28106714D01*
X93702142Y-28154333D01*
X93130714Y-27154333D02*
X94130714Y-27154333D01*
X93178333Y-27154333D02*
X93130714Y-27059095D01*
X93130714Y-26868619D01*
X93178333Y-26773380D01*
X93225952Y-26725761D01*
X93321190Y-26678142D01*
X93606904Y-26678142D01*
X93702142Y-26725761D01*
X93749761Y-26773380D01*
X93797380Y-26868619D01*
X93797380Y-27059095D01*
X93749761Y-27154333D01*
X93130714Y-26344809D02*
X93797380Y-26106714D01*
X93130714Y-25868619D01*
X93797380Y-25487666D02*
X92797380Y-25487666D01*
X93178333Y-25487666D02*
X93130714Y-25392428D01*
X93130714Y-25201952D01*
X93178333Y-25106714D01*
X93225952Y-25059095D01*
X93321190Y-25011476D01*
X93606904Y-25011476D01*
X93702142Y-25059095D01*
X93749761Y-25106714D01*
X93797380Y-25201952D01*
X93797380Y-25392428D01*
X93749761Y-25487666D01*
X93702142Y-24582904D02*
X93749761Y-24535285D01*
X93797380Y-24582904D01*
X93749761Y-24630523D01*
X93702142Y-24582904D01*
X93797380Y-24582904D01*
X93130714Y-24106714D02*
X93797380Y-24106714D01*
X93225952Y-24106714D02*
X93178333Y-24059095D01*
X93130714Y-23963857D01*
X93130714Y-23821000D01*
X93178333Y-23725761D01*
X93273571Y-23678142D01*
X93797380Y-23678142D01*
X93797380Y-23059095D02*
X93749761Y-23154333D01*
X93654523Y-23201952D01*
X92797380Y-23201952D01*
X6286785Y-20518380D02*
X6286785Y-19518380D01*
X6667738Y-19518380D01*
X6762976Y-19566000D01*
X6810595Y-19613619D01*
X6858214Y-19708857D01*
X6858214Y-19851714D01*
X6810595Y-19946952D01*
X6762976Y-19994571D01*
X6667738Y-20042190D01*
X6286785Y-20042190D01*
X7286785Y-19518380D02*
X7286785Y-20327904D01*
X7334404Y-20423142D01*
X7382023Y-20470761D01*
X7477261Y-20518380D01*
X7667738Y-20518380D01*
X7762976Y-20470761D01*
X7810595Y-20423142D01*
X7858214Y-20327904D01*
X7858214Y-19518380D01*
X8286785Y-20470761D02*
X8429642Y-20518380D01*
X8667738Y-20518380D01*
X8762976Y-20470761D01*
X8810595Y-20423142D01*
X8858214Y-20327904D01*
X8858214Y-20232666D01*
X8810595Y-20137428D01*
X8762976Y-20089809D01*
X8667738Y-20042190D01*
X8477261Y-19994571D01*
X8382023Y-19946952D01*
X8334404Y-19899333D01*
X8286785Y-19804095D01*
X8286785Y-19708857D01*
X8334404Y-19613619D01*
X8382023Y-19566000D01*
X8477261Y-19518380D01*
X8715357Y-19518380D01*
X8858214Y-19566000D01*
X9286785Y-20518380D02*
X9286785Y-19518380D01*
X9286785Y-19994571D02*
X9858214Y-19994571D01*
X9858214Y-20518380D02*
X9858214Y-19518380D01*
X10667738Y-19994571D02*
X10810595Y-20042190D01*
X10858214Y-20089809D01*
X10905833Y-20185047D01*
X10905833Y-20327904D01*
X10858214Y-20423142D01*
X10810595Y-20470761D01*
X10715357Y-20518380D01*
X10334404Y-20518380D01*
X10334404Y-19518380D01*
X10667738Y-19518380D01*
X10762976Y-19566000D01*
X10810595Y-19613619D01*
X10858214Y-19708857D01*
X10858214Y-19804095D01*
X10810595Y-19899333D01*
X10762976Y-19946952D01*
X10667738Y-19994571D01*
X10334404Y-19994571D01*
D11*
X11176000Y-19494500D02*
X11176000Y-27432000D01*
D10*
X77660523Y-21407380D02*
X77851000Y-21407380D01*
X77946238Y-21359761D01*
X77993857Y-21312142D01*
X78089095Y-21169285D01*
X78136714Y-20978809D01*
X78136714Y-20597857D01*
X78089095Y-20502619D01*
X78041476Y-20455000D01*
X77946238Y-20407380D01*
X77755761Y-20407380D01*
X77660523Y-20455000D01*
X77612904Y-20502619D01*
X77565285Y-20597857D01*
X77565285Y-20835952D01*
X77612904Y-20931190D01*
X77660523Y-20978809D01*
X77755761Y-21026428D01*
X77946238Y-21026428D01*
X78041476Y-20978809D01*
X78089095Y-20931190D01*
X78136714Y-20835952D01*
X58070714Y-21407380D02*
X57499285Y-21407380D01*
X57785000Y-21407380D02*
X57785000Y-20407380D01*
X57689761Y-20550238D01*
X57594523Y-20645476D01*
X57499285Y-20693095D01*
X8077719Y-73820638D02*
X7363433Y-73820638D01*
X7220576Y-73773019D01*
X7125338Y-73677780D01*
X7077719Y-73534923D01*
X7077719Y-73439685D01*
X7744385Y-74725400D02*
X7077719Y-74725400D01*
X7744385Y-74296828D02*
X7220576Y-74296828D01*
X7125338Y-74344447D01*
X7077719Y-74439685D01*
X7077719Y-74582542D01*
X7125338Y-74677780D01*
X7172957Y-74725400D01*
X7077719Y-75201590D02*
X7744385Y-75201590D01*
X7649147Y-75201590D02*
X7696766Y-75249209D01*
X7744385Y-75344447D01*
X7744385Y-75487304D01*
X7696766Y-75582542D01*
X7601528Y-75630161D01*
X7077719Y-75630161D01*
X7601528Y-75630161D02*
X7696766Y-75677780D01*
X7744385Y-75773019D01*
X7744385Y-75915876D01*
X7696766Y-76011114D01*
X7601528Y-76058733D01*
X7077719Y-76058733D01*
X7744385Y-76534923D02*
X6744385Y-76534923D01*
X7696766Y-76534923D02*
X7744385Y-76630161D01*
X7744385Y-76820638D01*
X7696766Y-76915876D01*
X7649147Y-76963495D01*
X7553909Y-77011114D01*
X7268195Y-77011114D01*
X7172957Y-76963495D01*
X7125338Y-76915876D01*
X7077719Y-76820638D01*
X7077719Y-76630161D01*
X7125338Y-76534923D01*
X7125338Y-77820638D02*
X7077719Y-77725400D01*
X7077719Y-77534923D01*
X7125338Y-77439685D01*
X7220576Y-77392066D01*
X7601528Y-77392066D01*
X7696766Y-77439685D01*
X7744385Y-77534923D01*
X7744385Y-77725400D01*
X7696766Y-77820638D01*
X7601528Y-77868257D01*
X7506290Y-77868257D01*
X7411052Y-77392066D01*
X7077719Y-78296828D02*
X7744385Y-78296828D01*
X7553909Y-78296828D02*
X7649147Y-78344447D01*
X7696766Y-78392066D01*
X7744385Y-78487304D01*
X7744385Y-78582542D01*
X7172957Y-78915876D02*
X7125338Y-78963495D01*
X7077719Y-78915876D01*
X7125338Y-78868257D01*
X7172957Y-78915876D01*
X7077719Y-78915876D01*
X7696766Y-78915876D02*
X7649147Y-78963495D01*
X7601528Y-78915876D01*
X7649147Y-78868257D01*
X7696766Y-78915876D01*
X7601528Y-78915876D01*
X5427719Y-72249209D02*
X5427719Y-71677780D01*
X5427719Y-71963495D02*
X6427719Y-71963495D01*
X6284861Y-71868257D01*
X6189623Y-71773019D01*
X6142004Y-71677780D01*
X5522957Y-72677780D02*
X5475338Y-72725400D01*
X5427719Y-72677780D01*
X5475338Y-72630161D01*
X5522957Y-72677780D01*
X5427719Y-72677780D01*
X6046766Y-72677780D02*
X5999147Y-72725400D01*
X5951528Y-72677780D01*
X5999147Y-72630161D01*
X6046766Y-72677780D01*
X5951528Y-72677780D01*
X6094385Y-74344447D02*
X5427719Y-74344447D01*
X6475338Y-74106352D02*
X5761052Y-73868257D01*
X5761052Y-74487304D01*
X5522957Y-74868257D02*
X5475338Y-74915876D01*
X5427719Y-74868257D01*
X5475338Y-74820638D01*
X5522957Y-74868257D01*
X5427719Y-74868257D01*
X6427719Y-75534923D02*
X6427719Y-75630161D01*
X6380100Y-75725400D01*
X6332480Y-75773019D01*
X6237242Y-75820638D01*
X6046766Y-75868257D01*
X5808671Y-75868257D01*
X5618195Y-75820638D01*
X5522957Y-75773019D01*
X5475338Y-75725400D01*
X5427719Y-75630161D01*
X5427719Y-75534923D01*
X5475338Y-75439685D01*
X5522957Y-75392066D01*
X5618195Y-75344447D01*
X5808671Y-75296828D01*
X6046766Y-75296828D01*
X6237242Y-75344447D01*
X6332480Y-75392066D01*
X6380100Y-75439685D01*
X6427719Y-75534923D01*
X6427719Y-76487304D02*
X6427719Y-76582542D01*
X6380100Y-76677780D01*
X6332480Y-76725400D01*
X6237242Y-76773019D01*
X6046766Y-76820638D01*
X5808671Y-76820638D01*
X5618195Y-76773019D01*
X5522957Y-76725400D01*
X5475338Y-76677780D01*
X5427719Y-76582542D01*
X5427719Y-76487304D01*
X5475338Y-76392066D01*
X5522957Y-76344447D01*
X5618195Y-76296828D01*
X5808671Y-76249209D01*
X6046766Y-76249209D01*
X6237242Y-76296828D01*
X6332480Y-76344447D01*
X6380100Y-76392066D01*
X6427719Y-76487304D01*
X6427719Y-77439685D02*
X6427719Y-77534923D01*
X6380100Y-77630161D01*
X6332480Y-77677780D01*
X6237242Y-77725400D01*
X6046766Y-77773019D01*
X5808671Y-77773019D01*
X5618195Y-77725400D01*
X5522957Y-77677780D01*
X5475338Y-77630161D01*
X5427719Y-77534923D01*
X5427719Y-77439685D01*
X5475338Y-77344447D01*
X5522957Y-77296828D01*
X5618195Y-77249209D01*
X5808671Y-77201590D01*
X6046766Y-77201590D01*
X6237242Y-77249209D01*
X6332480Y-77296828D01*
X6380100Y-77344447D01*
X6427719Y-77439685D01*
X5427719Y-78201590D02*
X6427719Y-78201590D01*
X5713433Y-78534923D01*
X6427719Y-78868257D01*
X5427719Y-78868257D01*
X5427719Y-79344447D02*
X6427719Y-79344447D01*
X5951528Y-79344447D02*
X5951528Y-79915876D01*
X5427719Y-79915876D02*
X6427719Y-79915876D01*
X6094385Y-80296828D02*
X6094385Y-80820638D01*
X5427719Y-80296828D01*
X5427719Y-80820638D01*
X4682480Y-71677780D02*
X4730100Y-71725400D01*
X4777719Y-71820638D01*
X4777719Y-72058733D01*
X4730100Y-72153971D01*
X4682480Y-72201590D01*
X4587242Y-72249209D01*
X4492004Y-72249209D01*
X4349147Y-72201590D01*
X3777719Y-71630161D01*
X3777719Y-72249209D01*
X3872957Y-72677780D02*
X3825338Y-72725400D01*
X3777719Y-72677780D01*
X3825338Y-72630161D01*
X3872957Y-72677780D01*
X3777719Y-72677780D01*
X4396766Y-72677780D02*
X4349147Y-72725400D01*
X4301528Y-72677780D01*
X4349147Y-72630161D01*
X4396766Y-72677780D01*
X4301528Y-72677780D01*
X3777719Y-73963495D02*
X3777719Y-74153971D01*
X3825338Y-74249209D01*
X3872957Y-74296828D01*
X4015814Y-74392066D01*
X4206290Y-74439685D01*
X4587242Y-74439685D01*
X4682480Y-74392066D01*
X4730100Y-74344447D01*
X4777719Y-74249209D01*
X4777719Y-74058733D01*
X4730100Y-73963495D01*
X4682480Y-73915876D01*
X4587242Y-73868257D01*
X4349147Y-73868257D01*
X4253909Y-73915876D01*
X4206290Y-73963495D01*
X4158671Y-74058733D01*
X4158671Y-74249209D01*
X4206290Y-74344447D01*
X4253909Y-74392066D01*
X4349147Y-74439685D01*
X3872957Y-74868257D02*
X3825338Y-74915876D01*
X3777719Y-74868257D01*
X3825338Y-74820638D01*
X3872957Y-74868257D01*
X3777719Y-74868257D01*
X4682480Y-75296828D02*
X4730100Y-75344447D01*
X4777719Y-75439685D01*
X4777719Y-75677780D01*
X4730100Y-75773019D01*
X4682480Y-75820638D01*
X4587242Y-75868257D01*
X4492004Y-75868257D01*
X4349147Y-75820638D01*
X3777719Y-75249209D01*
X3777719Y-75868257D01*
X3777719Y-76820638D02*
X3777719Y-76249209D01*
X3777719Y-76534923D02*
X4777719Y-76534923D01*
X4634861Y-76439685D01*
X4539623Y-76344447D01*
X4492004Y-76249209D01*
X4777719Y-77677780D02*
X4777719Y-77487304D01*
X4730100Y-77392066D01*
X4682480Y-77344447D01*
X4539623Y-77249209D01*
X4349147Y-77201590D01*
X3968195Y-77201590D01*
X3872957Y-77249209D01*
X3825338Y-77296828D01*
X3777719Y-77392066D01*
X3777719Y-77582542D01*
X3825338Y-77677780D01*
X3872957Y-77725400D01*
X3968195Y-77773019D01*
X4206290Y-77773019D01*
X4301528Y-77725400D01*
X4349147Y-77677780D01*
X4396766Y-77582542D01*
X4396766Y-77392066D01*
X4349147Y-77296828D01*
X4301528Y-77249209D01*
X4206290Y-77201590D01*
X3777719Y-78201590D02*
X4777719Y-78201590D01*
X4063433Y-78534923D01*
X4777719Y-78868257D01*
X3777719Y-78868257D01*
X3777719Y-79344447D02*
X4777719Y-79344447D01*
X4301528Y-79344447D02*
X4301528Y-79915876D01*
X3777719Y-79915876D02*
X4777719Y-79915876D01*
X4444385Y-80296828D02*
X4444385Y-80820638D01*
X3777719Y-80296828D01*
X3777719Y-80820638D01*
X4083085Y-68381619D02*
X4130704Y-68334000D01*
X4225942Y-68286380D01*
X4464038Y-68286380D01*
X4559276Y-68334000D01*
X4606895Y-68381619D01*
X4654514Y-68476857D01*
X4654514Y-68572095D01*
X4606895Y-68714952D01*
X4035466Y-69286380D01*
X4654514Y-69286380D01*
X4667214Y-64180980D02*
X4095785Y-64180980D01*
X4381500Y-64180980D02*
X4381500Y-63180980D01*
X4286261Y-63323838D01*
X4191023Y-63419076D01*
X4095785Y-63466695D01*
D12*
X91836761Y-66370666D02*
X89836761Y-66370666D01*
X89836761Y-65894476D01*
X89932000Y-65608761D01*
X90122476Y-65418285D01*
X90312952Y-65323047D01*
X90693904Y-65227809D01*
X90979619Y-65227809D01*
X91360571Y-65323047D01*
X91551047Y-65418285D01*
X91741523Y-65608761D01*
X91836761Y-65894476D01*
X91836761Y-66370666D01*
X90789142Y-64370666D02*
X90789142Y-63704000D01*
X91836761Y-63418285D02*
X91836761Y-64370666D01*
X89836761Y-64370666D01*
X89836761Y-63418285D01*
X91741523Y-62656380D02*
X91836761Y-62370666D01*
X91836761Y-61894476D01*
X91741523Y-61704000D01*
X91646285Y-61608761D01*
X91455809Y-61513523D01*
X91265333Y-61513523D01*
X91074857Y-61608761D01*
X90979619Y-61704000D01*
X90884380Y-61894476D01*
X90789142Y-62275428D01*
X90693904Y-62465904D01*
X90598666Y-62561142D01*
X90408190Y-62656380D01*
X90217714Y-62656380D01*
X90027238Y-62561142D01*
X89932000Y-62465904D01*
X89836761Y-62275428D01*
X89836761Y-61799238D01*
X89932000Y-61513523D01*
X91836761Y-60656380D02*
X89836761Y-60656380D01*
X89932000Y-58656380D02*
X89836761Y-58846857D01*
X89836761Y-59132571D01*
X89932000Y-59418285D01*
X90122476Y-59608761D01*
X90312952Y-59704000D01*
X90693904Y-59799238D01*
X90979619Y-59799238D01*
X91360571Y-59704000D01*
X91551047Y-59608761D01*
X91741523Y-59418285D01*
X91836761Y-59132571D01*
X91836761Y-58942095D01*
X91741523Y-58656380D01*
X91646285Y-58561142D01*
X90979619Y-58561142D01*
X90979619Y-58942095D01*
X91836761Y-57704000D02*
X89836761Y-57704000D01*
X91836761Y-56561142D01*
X89836761Y-56561142D01*
X90789142Y-53418285D02*
X90884380Y-53132571D01*
X90979619Y-53037333D01*
X91170095Y-52942095D01*
X91455809Y-52942095D01*
X91646285Y-53037333D01*
X91741523Y-53132571D01*
X91836761Y-53323047D01*
X91836761Y-54084952D01*
X89836761Y-54084952D01*
X89836761Y-53418285D01*
X89932000Y-53227809D01*
X90027238Y-53132571D01*
X90217714Y-53037333D01*
X90408190Y-53037333D01*
X90598666Y-53132571D01*
X90693904Y-53227809D01*
X90789142Y-53418285D01*
X90789142Y-54084952D01*
X90884380Y-51704000D02*
X91836761Y-51704000D01*
X89836761Y-52370666D02*
X90884380Y-51704000D01*
X89836761Y-51037333D01*
X91836761Y-48846857D02*
X89836761Y-48846857D01*
X89836761Y-48084952D01*
X89932000Y-47894476D01*
X90027238Y-47799238D01*
X90217714Y-47704000D01*
X90503428Y-47704000D01*
X90693904Y-47799238D01*
X90789142Y-47894476D01*
X90884380Y-48084952D01*
X90884380Y-48846857D01*
X90789142Y-46846857D02*
X90789142Y-46180190D01*
X91836761Y-45894476D02*
X91836761Y-46846857D01*
X89836761Y-46846857D01*
X89836761Y-45894476D01*
X89836761Y-44084952D02*
X89836761Y-45037333D01*
X90789142Y-45132571D01*
X90693904Y-45037333D01*
X90598666Y-44846857D01*
X90598666Y-44370666D01*
X90693904Y-44180190D01*
X90789142Y-44084952D01*
X90979619Y-43989714D01*
X91455809Y-43989714D01*
X91646285Y-44084952D01*
X91741523Y-44180190D01*
X91836761Y-44370666D01*
X91836761Y-44846857D01*
X91741523Y-45037333D01*
X91646285Y-45132571D01*
X91836761Y-43132571D02*
X89836761Y-43132571D01*
X89836761Y-42370666D01*
X89932000Y-42180190D01*
X90027238Y-42084952D01*
X90217714Y-41989714D01*
X90503428Y-41989714D01*
X90693904Y-42084952D01*
X90789142Y-42180190D01*
X90884380Y-42370666D01*
X90884380Y-43132571D01*
X89836761Y-41418285D02*
X91836761Y-40751619D01*
X89836761Y-40084952D01*
X90789142Y-38751619D02*
X90884380Y-38465904D01*
X90979619Y-38370666D01*
X91170095Y-38275428D01*
X91455809Y-38275428D01*
X91646285Y-38370666D01*
X91741523Y-38465904D01*
X91836761Y-38656380D01*
X91836761Y-39418285D01*
X89836761Y-39418285D01*
X89836761Y-38751619D01*
X89932000Y-38561142D01*
X90027238Y-38465904D01*
X90217714Y-38370666D01*
X90408190Y-38370666D01*
X90598666Y-38465904D01*
X90693904Y-38561142D01*
X90789142Y-38751619D01*
X90789142Y-39418285D01*
X92598666Y-35323047D02*
X92503428Y-35418285D01*
X92217714Y-35608761D01*
X92027238Y-35704000D01*
X91741523Y-35799238D01*
X91265333Y-35894476D01*
X90884380Y-35894476D01*
X90408190Y-35799238D01*
X90122476Y-35704000D01*
X89932000Y-35608761D01*
X89646285Y-35418285D01*
X89551047Y-35323047D01*
X91646285Y-33418285D02*
X91741523Y-33513523D01*
X91836761Y-33799238D01*
X91836761Y-33989714D01*
X91741523Y-34275428D01*
X91551047Y-34465904D01*
X91360571Y-34561142D01*
X90979619Y-34656380D01*
X90693904Y-34656380D01*
X90312952Y-34561142D01*
X90122476Y-34465904D01*
X89932000Y-34275428D01*
X89836761Y-33989714D01*
X89836761Y-33799238D01*
X89932000Y-33513523D01*
X90027238Y-33418285D01*
X92598666Y-32751619D02*
X92503428Y-32656380D01*
X92217714Y-32465904D01*
X92027238Y-32370666D01*
X91741523Y-32275428D01*
X91265333Y-32180190D01*
X90884380Y-32180190D01*
X90408190Y-32275428D01*
X90122476Y-32370666D01*
X89932000Y-32465904D01*
X89646285Y-32656380D01*
X89551047Y-32751619D01*
X90027238Y-29799238D02*
X89932000Y-29704000D01*
X89836761Y-29513523D01*
X89836761Y-29037333D01*
X89932000Y-28846857D01*
X90027238Y-28751619D01*
X90217714Y-28656380D01*
X90408190Y-28656380D01*
X90693904Y-28751619D01*
X91836761Y-29894476D01*
X91836761Y-28656380D01*
X89836761Y-27418285D02*
X89836761Y-27227809D01*
X89932000Y-27037333D01*
X90027238Y-26942095D01*
X90217714Y-26846857D01*
X90598666Y-26751619D01*
X91074857Y-26751619D01*
X91455809Y-26846857D01*
X91646285Y-26942095D01*
X91741523Y-27037333D01*
X91836761Y-27227809D01*
X91836761Y-27418285D01*
X91741523Y-27608761D01*
X91646285Y-27704000D01*
X91455809Y-27799238D01*
X91074857Y-27894476D01*
X90598666Y-27894476D01*
X90217714Y-27799238D01*
X90027238Y-27704000D01*
X89932000Y-27608761D01*
X89836761Y-27418285D01*
X90027238Y-25989714D02*
X89932000Y-25894476D01*
X89836761Y-25704000D01*
X89836761Y-25227809D01*
X89932000Y-25037333D01*
X90027238Y-24942095D01*
X90217714Y-24846857D01*
X90408190Y-24846857D01*
X90693904Y-24942095D01*
X91836761Y-26084952D01*
X91836761Y-24846857D01*
X91836761Y-22942095D02*
X91836761Y-24084952D01*
X91836761Y-23513523D02*
X89836761Y-23513523D01*
X90122476Y-23704000D01*
X90312952Y-23894476D01*
X90408190Y-24084952D01*
X86026761Y-56084285D02*
X86026761Y-54941428D01*
X88026761Y-55512857D02*
X86026761Y-55512857D01*
X86979142Y-54274761D02*
X86979142Y-53608095D01*
X88026761Y-53322380D02*
X88026761Y-54274761D01*
X86026761Y-54274761D01*
X86026761Y-53322380D01*
X86979142Y-51798571D02*
X86979142Y-52465238D01*
X88026761Y-52465238D02*
X86026761Y-52465238D01*
X86026761Y-51512857D01*
X86026761Y-49893809D02*
X86026761Y-50274761D01*
X86122000Y-50465238D01*
X86217238Y-50560476D01*
X86502952Y-50750952D01*
X86883904Y-50846190D01*
X87645809Y-50846190D01*
X87836285Y-50750952D01*
X87931523Y-50655714D01*
X88026761Y-50465238D01*
X88026761Y-50084285D01*
X87931523Y-49893809D01*
X87836285Y-49798571D01*
X87645809Y-49703333D01*
X87169619Y-49703333D01*
X86979142Y-49798571D01*
X86883904Y-49893809D01*
X86788666Y-50084285D01*
X86788666Y-50465238D01*
X86883904Y-50655714D01*
X86979142Y-50750952D01*
X87169619Y-50846190D01*
X86026761Y-47989047D02*
X86026761Y-48370000D01*
X86122000Y-48560476D01*
X86217238Y-48655714D01*
X86502952Y-48846190D01*
X86883904Y-48941428D01*
X87645809Y-48941428D01*
X87836285Y-48846190D01*
X87931523Y-48750952D01*
X88026761Y-48560476D01*
X88026761Y-48179523D01*
X87931523Y-47989047D01*
X87836285Y-47893809D01*
X87645809Y-47798571D01*
X87169619Y-47798571D01*
X86979142Y-47893809D01*
X86883904Y-47989047D01*
X86788666Y-48179523D01*
X86788666Y-48560476D01*
X86883904Y-48750952D01*
X86979142Y-48846190D01*
X87169619Y-48941428D01*
X86883904Y-46655714D02*
X86788666Y-46846190D01*
X86693428Y-46941428D01*
X86502952Y-47036666D01*
X86407714Y-47036666D01*
X86217238Y-46941428D01*
X86122000Y-46846190D01*
X86026761Y-46655714D01*
X86026761Y-46274761D01*
X86122000Y-46084285D01*
X86217238Y-45989047D01*
X86407714Y-45893809D01*
X86502952Y-45893809D01*
X86693428Y-45989047D01*
X86788666Y-46084285D01*
X86883904Y-46274761D01*
X86883904Y-46655714D01*
X86979142Y-46846190D01*
X87074380Y-46941428D01*
X87264857Y-47036666D01*
X87645809Y-47036666D01*
X87836285Y-46941428D01*
X87931523Y-46846190D01*
X88026761Y-46655714D01*
X88026761Y-46274761D01*
X87931523Y-46084285D01*
X87836285Y-45989047D01*
X87645809Y-45893809D01*
X87264857Y-45893809D01*
X87074380Y-45989047D01*
X86979142Y-46084285D01*
X86883904Y-46274761D01*
X86026761Y-44179523D02*
X86026761Y-44560476D01*
X86122000Y-44750952D01*
X86217238Y-44846190D01*
X86502952Y-45036666D01*
X86883904Y-45131904D01*
X87645809Y-45131904D01*
X87836285Y-45036666D01*
X87931523Y-44941428D01*
X88026761Y-44750952D01*
X88026761Y-44370000D01*
X87931523Y-44179523D01*
X87836285Y-44084285D01*
X87645809Y-43989047D01*
X87169619Y-43989047D01*
X86979142Y-44084285D01*
X86883904Y-44179523D01*
X86788666Y-44370000D01*
X86788666Y-44750952D01*
X86883904Y-44941428D01*
X86979142Y-45036666D01*
X87169619Y-45131904D01*
X86979142Y-40941428D02*
X86979142Y-41608095D01*
X88026761Y-41608095D02*
X86026761Y-41608095D01*
X86026761Y-40655714D01*
X88026761Y-39893809D02*
X86026761Y-39893809D01*
X87455333Y-39227142D01*
X86026761Y-38560476D01*
X88026761Y-38560476D01*
X88026761Y-34941428D02*
X87074380Y-35608095D01*
X88026761Y-36084285D02*
X86026761Y-36084285D01*
X86026761Y-35322380D01*
X86122000Y-35131904D01*
X86217238Y-35036666D01*
X86407714Y-34941428D01*
X86693428Y-34941428D01*
X86883904Y-35036666D01*
X86979142Y-35131904D01*
X87074380Y-35322380D01*
X87074380Y-36084285D01*
X86979142Y-34084285D02*
X86979142Y-33417619D01*
X88026761Y-33131904D02*
X88026761Y-34084285D01*
X86026761Y-34084285D01*
X86026761Y-33131904D01*
X87836285Y-31131904D02*
X87931523Y-31227142D01*
X88026761Y-31512857D01*
X88026761Y-31703333D01*
X87931523Y-31989047D01*
X87741047Y-32179523D01*
X87550571Y-32274761D01*
X87169619Y-32370000D01*
X86883904Y-32370000D01*
X86502952Y-32274761D01*
X86312476Y-32179523D01*
X86122000Y-31989047D01*
X86026761Y-31703333D01*
X86026761Y-31512857D01*
X86122000Y-31227142D01*
X86217238Y-31131904D01*
X86979142Y-30274761D02*
X86979142Y-29608095D01*
X88026761Y-29322380D02*
X88026761Y-30274761D01*
X86026761Y-30274761D01*
X86026761Y-29322380D01*
X88026761Y-28465238D02*
X86026761Y-28465238D01*
X86026761Y-27798571D02*
X88026761Y-27131904D01*
X86026761Y-26465238D01*
X86979142Y-25798571D02*
X86979142Y-25131904D01*
X88026761Y-24846190D02*
X88026761Y-25798571D01*
X86026761Y-25798571D01*
X86026761Y-24846190D01*
X88026761Y-22846190D02*
X87074380Y-23512857D01*
X88026761Y-23989047D02*
X86026761Y-23989047D01*
X86026761Y-23227142D01*
X86122000Y-23036666D01*
X86217238Y-22941428D01*
X86407714Y-22846190D01*
X86693428Y-22846190D01*
X86883904Y-22941428D01*
X86979142Y-23036666D01*
X87074380Y-23227142D01*
X87074380Y-23989047D01*
D11*
%TO.C,HS1*%
X81674000Y-30100000D02*
X81674000Y-55320000D01*
X80254000Y-31520000D02*
X80254000Y-53900000D01*
X75514000Y-55320000D02*
X81674000Y-55320000D01*
X75514000Y-30100000D02*
X81674000Y-30100000D01*
X75514000Y-53900000D02*
X80254000Y-53900000D01*
X75514000Y-31520000D02*
X80254000Y-31520000D01*
X73154000Y-51820000D02*
X77174000Y-51820000D01*
X77174000Y-51820000D02*
X77174000Y-33600000D01*
X77174000Y-33600000D02*
X73154000Y-33600000D01*
X73154000Y-33600000D02*
X73154000Y-51820000D01*
X73264000Y-47960000D02*
X77064000Y-47960000D01*
X73264000Y-37460000D02*
X77064000Y-37460000D01*
%TO.C,C22*%
X75280000Y-45720000D02*
G75*
G03*
X75280000Y-45720000I-2620000J0D01*
G01*
X72660000Y-44680000D02*
X72660000Y-43140000D01*
X72660000Y-48300000D02*
X72660000Y-46760000D01*
X72620000Y-44680000D02*
X72620000Y-43140000D01*
X72620000Y-48300000D02*
X72620000Y-46760000D01*
X72580000Y-48299000D02*
X72580000Y-46760000D01*
X72580000Y-44680000D02*
X72580000Y-43141000D01*
X72540000Y-48298000D02*
X72540000Y-46760000D01*
X72540000Y-44680000D02*
X72540000Y-43142000D01*
X72500000Y-48296000D02*
X72500000Y-46760000D01*
X72500000Y-44680000D02*
X72500000Y-43144000D01*
X72460000Y-48293000D02*
X72460000Y-46760000D01*
X72460000Y-44680000D02*
X72460000Y-43147000D01*
X72420000Y-48289000D02*
X72420000Y-46760000D01*
X72420000Y-44680000D02*
X72420000Y-43151000D01*
X72380000Y-48285000D02*
X72380000Y-46760000D01*
X72380000Y-44680000D02*
X72380000Y-43155000D01*
X72340000Y-48281000D02*
X72340000Y-46760000D01*
X72340000Y-44680000D02*
X72340000Y-43159000D01*
X72300000Y-48276000D02*
X72300000Y-46760000D01*
X72300000Y-44680000D02*
X72300000Y-43164000D01*
X72260000Y-48270000D02*
X72260000Y-46760000D01*
X72260000Y-44680000D02*
X72260000Y-43170000D01*
X72220000Y-48263000D02*
X72220000Y-46760000D01*
X72220000Y-44680000D02*
X72220000Y-43177000D01*
X72180000Y-48256000D02*
X72180000Y-46760000D01*
X72180000Y-44680000D02*
X72180000Y-43184000D01*
X72140000Y-48248000D02*
X72140000Y-46760000D01*
X72140000Y-44680000D02*
X72140000Y-43192000D01*
X72100000Y-48240000D02*
X72100000Y-46760000D01*
X72100000Y-44680000D02*
X72100000Y-43200000D01*
X72060000Y-48231000D02*
X72060000Y-46760000D01*
X72060000Y-44680000D02*
X72060000Y-43209000D01*
X72020000Y-48221000D02*
X72020000Y-46760000D01*
X72020000Y-44680000D02*
X72020000Y-43219000D01*
X71980000Y-48211000D02*
X71980000Y-46760000D01*
X71980000Y-44680000D02*
X71980000Y-43229000D01*
X71939000Y-48200000D02*
X71939000Y-46760000D01*
X71939000Y-44680000D02*
X71939000Y-43240000D01*
X71899000Y-48188000D02*
X71899000Y-46760000D01*
X71899000Y-44680000D02*
X71899000Y-43252000D01*
X71859000Y-48175000D02*
X71859000Y-46760000D01*
X71859000Y-44680000D02*
X71859000Y-43265000D01*
X71819000Y-48162000D02*
X71819000Y-46760000D01*
X71819000Y-44680000D02*
X71819000Y-43278000D01*
X71779000Y-48148000D02*
X71779000Y-46760000D01*
X71779000Y-44680000D02*
X71779000Y-43292000D01*
X71739000Y-48134000D02*
X71739000Y-46760000D01*
X71739000Y-44680000D02*
X71739000Y-43306000D01*
X71699000Y-48118000D02*
X71699000Y-46760000D01*
X71699000Y-44680000D02*
X71699000Y-43322000D01*
X71659000Y-48102000D02*
X71659000Y-46760000D01*
X71659000Y-44680000D02*
X71659000Y-43338000D01*
X71619000Y-48085000D02*
X71619000Y-46760000D01*
X71619000Y-44680000D02*
X71619000Y-43355000D01*
X71579000Y-48068000D02*
X71579000Y-46760000D01*
X71579000Y-44680000D02*
X71579000Y-43372000D01*
X71539000Y-48049000D02*
X71539000Y-46760000D01*
X71539000Y-44680000D02*
X71539000Y-43391000D01*
X71499000Y-48030000D02*
X71499000Y-46760000D01*
X71499000Y-44680000D02*
X71499000Y-43410000D01*
X71459000Y-48010000D02*
X71459000Y-46760000D01*
X71459000Y-44680000D02*
X71459000Y-43430000D01*
X71419000Y-47988000D02*
X71419000Y-46760000D01*
X71419000Y-44680000D02*
X71419000Y-43452000D01*
X71379000Y-47967000D02*
X71379000Y-46760000D01*
X71379000Y-44680000D02*
X71379000Y-43473000D01*
X71339000Y-47944000D02*
X71339000Y-46760000D01*
X71339000Y-44680000D02*
X71339000Y-43496000D01*
X71299000Y-47920000D02*
X71299000Y-46760000D01*
X71299000Y-44680000D02*
X71299000Y-43520000D01*
X71259000Y-47895000D02*
X71259000Y-46760000D01*
X71259000Y-44680000D02*
X71259000Y-43545000D01*
X71219000Y-47869000D02*
X71219000Y-46760000D01*
X71219000Y-44680000D02*
X71219000Y-43571000D01*
X71179000Y-47842000D02*
X71179000Y-46760000D01*
X71179000Y-44680000D02*
X71179000Y-43598000D01*
X71139000Y-47815000D02*
X71139000Y-46760000D01*
X71139000Y-44680000D02*
X71139000Y-43625000D01*
X71099000Y-47785000D02*
X71099000Y-46760000D01*
X71099000Y-44680000D02*
X71099000Y-43655000D01*
X71059000Y-47755000D02*
X71059000Y-46760000D01*
X71059000Y-44680000D02*
X71059000Y-43685000D01*
X71019000Y-47724000D02*
X71019000Y-46760000D01*
X71019000Y-44680000D02*
X71019000Y-43716000D01*
X70979000Y-47691000D02*
X70979000Y-46760000D01*
X70979000Y-44680000D02*
X70979000Y-43749000D01*
X70939000Y-47657000D02*
X70939000Y-46760000D01*
X70939000Y-44680000D02*
X70939000Y-43783000D01*
X70899000Y-47621000D02*
X70899000Y-46760000D01*
X70899000Y-44680000D02*
X70899000Y-43819000D01*
X70859000Y-47584000D02*
X70859000Y-46760000D01*
X70859000Y-44680000D02*
X70859000Y-43856000D01*
X70819000Y-47546000D02*
X70819000Y-46760000D01*
X70819000Y-44680000D02*
X70819000Y-43894000D01*
X70779000Y-47505000D02*
X70779000Y-46760000D01*
X70779000Y-44680000D02*
X70779000Y-43935000D01*
X70739000Y-47463000D02*
X70739000Y-46760000D01*
X70739000Y-44680000D02*
X70739000Y-43977000D01*
X70699000Y-47419000D02*
X70699000Y-46760000D01*
X70699000Y-44680000D02*
X70699000Y-44021000D01*
X70659000Y-47373000D02*
X70659000Y-46760000D01*
X70659000Y-44680000D02*
X70659000Y-44067000D01*
X70619000Y-47325000D02*
X70619000Y-44115000D01*
X70579000Y-47274000D02*
X70579000Y-44166000D01*
X70539000Y-47220000D02*
X70539000Y-44220000D01*
X70499000Y-47163000D02*
X70499000Y-44277000D01*
X70459000Y-47103000D02*
X70459000Y-44337000D01*
X70419000Y-47039000D02*
X70419000Y-44401000D01*
X70379000Y-46971000D02*
X70379000Y-44469000D01*
X70339000Y-46898000D02*
X70339000Y-44542000D01*
X70299000Y-46818000D02*
X70299000Y-44622000D01*
X70259000Y-46731000D02*
X70259000Y-44709000D01*
X70219000Y-46635000D02*
X70219000Y-44805000D01*
X70179000Y-46525000D02*
X70179000Y-44915000D01*
X70139000Y-46397000D02*
X70139000Y-45043000D01*
X70099000Y-46238000D02*
X70099000Y-45202000D01*
X70059000Y-46004000D02*
X70059000Y-45436000D01*
X75464775Y-47195000D02*
X74964775Y-47195000D01*
X75214775Y-47445000D02*
X75214775Y-46945000D01*
%TO.C,C21*%
X74030000Y-41506000D02*
X70790000Y-41506000D01*
X74030000Y-39266000D02*
X70790000Y-39266000D01*
X74030000Y-41506000D02*
X74030000Y-41441000D01*
X74030000Y-39331000D02*
X74030000Y-39266000D01*
X70790000Y-41506000D02*
X70790000Y-41441000D01*
X70790000Y-39331000D02*
X70790000Y-39266000D01*
%TO.C,C2*%
X50696000Y-32882000D02*
X50696000Y-29642000D01*
X52936000Y-32882000D02*
X52936000Y-29642000D01*
X50696000Y-32882000D02*
X50761000Y-32882000D01*
X52871000Y-32882000D02*
X52936000Y-32882000D01*
X50696000Y-29642000D02*
X50761000Y-29642000D01*
X52871000Y-29642000D02*
X52936000Y-29642000D01*
%TO.C,U2*%
X83661000Y-37844000D02*
X83661000Y-48084000D01*
X79020000Y-37844000D02*
X79020000Y-48084000D01*
X83661000Y-37844000D02*
X79020000Y-37844000D01*
X83661000Y-48084000D02*
X79020000Y-48084000D01*
X82151000Y-37844000D02*
X82151000Y-48084000D01*
X83661000Y-41114000D02*
X82151000Y-41114000D01*
X83661000Y-44815000D02*
X82151000Y-44815000D01*
%TO.C,U1*%
X70552000Y-70596000D02*
X70552000Y-71846000D01*
X70552000Y-71846000D02*
X80832000Y-71846000D01*
X80832000Y-71846000D02*
X80832000Y-67346000D01*
X80832000Y-67346000D02*
X70552000Y-67346000D01*
X70552000Y-67346000D02*
X70552000Y-68596000D01*
X70492000Y-74846000D02*
X80892000Y-74846000D01*
X80892000Y-74846000D02*
X80892000Y-64346000D01*
X80892000Y-64346000D02*
X70492000Y-64346000D01*
X70492000Y-64346000D02*
X70492000Y-74846000D01*
X70552000Y-68596000D02*
G75*
G02*
X70552000Y-70596000I0J-1000000D01*
G01*
%TO.C,R18*%
X72422000Y-60606000D02*
X72422000Y-63346000D01*
X72422000Y-63346000D02*
X78962000Y-63346000D01*
X78962000Y-63346000D02*
X78962000Y-60606000D01*
X78962000Y-60606000D02*
X72422000Y-60606000D01*
X71652000Y-61976000D02*
X72422000Y-61976000D01*
X79732000Y-61976000D02*
X78962000Y-61976000D01*
%TO.C,R17*%
X62330000Y-77756000D02*
X59590000Y-77756000D01*
X59590000Y-77756000D02*
X59590000Y-84296000D01*
X59590000Y-84296000D02*
X62330000Y-84296000D01*
X62330000Y-84296000D02*
X62330000Y-77756000D01*
X60960000Y-76986000D02*
X60960000Y-77756000D01*
X60960000Y-85066000D02*
X60960000Y-84296000D01*
%TO.C,R16*%
X59590000Y-71342000D02*
X62330000Y-71342000D01*
X62330000Y-71342000D02*
X62330000Y-64802000D01*
X62330000Y-64802000D02*
X59590000Y-64802000D01*
X59590000Y-64802000D02*
X59590000Y-71342000D01*
X60960000Y-72112000D02*
X60960000Y-71342000D01*
X60960000Y-64032000D02*
X60960000Y-64802000D01*
%TO.C,R15*%
X55526000Y-71342000D02*
X58266000Y-71342000D01*
X58266000Y-71342000D02*
X58266000Y-64802000D01*
X58266000Y-64802000D02*
X55526000Y-64802000D01*
X55526000Y-64802000D02*
X55526000Y-71342000D01*
X56896000Y-72112000D02*
X56896000Y-71342000D01*
X56896000Y-64032000D02*
X56896000Y-64802000D01*
%TO.C,R14*%
X26316000Y-38322000D02*
X29056000Y-38322000D01*
X29056000Y-38322000D02*
X29056000Y-31782000D01*
X29056000Y-31782000D02*
X26316000Y-31782000D01*
X26316000Y-31782000D02*
X26316000Y-38322000D01*
X27686000Y-39092000D02*
X27686000Y-38322000D01*
X27686000Y-31012000D02*
X27686000Y-31782000D01*
%TO.C,R13*%
X72676000Y-75846000D02*
X72676000Y-78586000D01*
X72676000Y-78586000D02*
X79216000Y-78586000D01*
X79216000Y-78586000D02*
X79216000Y-75846000D01*
X79216000Y-75846000D02*
X72676000Y-75846000D01*
X71906000Y-77216000D02*
X72676000Y-77216000D01*
X79986000Y-77216000D02*
X79216000Y-77216000D01*
%TO.C,R12*%
X58266000Y-77756000D02*
X55526000Y-77756000D01*
X55526000Y-77756000D02*
X55526000Y-84296000D01*
X55526000Y-84296000D02*
X58266000Y-84296000D01*
X58266000Y-84296000D02*
X58266000Y-77756000D01*
X56896000Y-76986000D02*
X56896000Y-77756000D01*
X56896000Y-85066000D02*
X56896000Y-84296000D01*
%TO.C,R11*%
X66394000Y-77756000D02*
X63654000Y-77756000D01*
X63654000Y-77756000D02*
X63654000Y-84296000D01*
X63654000Y-84296000D02*
X66394000Y-84296000D01*
X66394000Y-84296000D02*
X66394000Y-77756000D01*
X65024000Y-76986000D02*
X65024000Y-77756000D01*
X65024000Y-85066000D02*
X65024000Y-84296000D01*
%TO.C,R10*%
X63654000Y-71342000D02*
X66394000Y-71342000D01*
X66394000Y-71342000D02*
X66394000Y-64802000D01*
X66394000Y-64802000D02*
X63654000Y-64802000D01*
X63654000Y-64802000D02*
X63654000Y-71342000D01*
X65024000Y-72112000D02*
X65024000Y-71342000D01*
X65024000Y-64032000D02*
X65024000Y-64802000D01*
%TO.C,R9*%
X17680000Y-38322000D02*
X20420000Y-38322000D01*
X20420000Y-38322000D02*
X20420000Y-31782000D01*
X20420000Y-31782000D02*
X17680000Y-31782000D01*
X17680000Y-31782000D02*
X17680000Y-38322000D01*
X19050000Y-39092000D02*
X19050000Y-38322000D01*
X19050000Y-31012000D02*
X19050000Y-31782000D01*
%TO.C,R8*%
X21998000Y-38322000D02*
X24738000Y-38322000D01*
X24738000Y-38322000D02*
X24738000Y-31782000D01*
X24738000Y-31782000D02*
X21998000Y-31782000D01*
X21998000Y-31782000D02*
X21998000Y-38322000D01*
X23368000Y-39092000D02*
X23368000Y-38322000D01*
X23368000Y-31012000D02*
X23368000Y-31782000D01*
%TO.C,R7*%
X50768000Y-49376000D02*
X50768000Y-46636000D01*
X50768000Y-46636000D02*
X44228000Y-46636000D01*
X44228000Y-46636000D02*
X44228000Y-49376000D01*
X44228000Y-49376000D02*
X50768000Y-49376000D01*
X51538000Y-48006000D02*
X50768000Y-48006000D01*
X43458000Y-48006000D02*
X44228000Y-48006000D01*
%TO.C,R6*%
X50768000Y-45058000D02*
X50768000Y-42318000D01*
X50768000Y-42318000D02*
X44228000Y-42318000D01*
X44228000Y-42318000D02*
X44228000Y-45058000D01*
X44228000Y-45058000D02*
X50768000Y-45058000D01*
X51538000Y-43688000D02*
X50768000Y-43688000D01*
X43458000Y-43688000D02*
X44228000Y-43688000D01*
%TO.C,R5*%
X48614000Y-31782000D02*
X45874000Y-31782000D01*
X45874000Y-31782000D02*
X45874000Y-38322000D01*
X45874000Y-38322000D02*
X48614000Y-38322000D01*
X48614000Y-38322000D02*
X48614000Y-31782000D01*
X47244000Y-31012000D02*
X47244000Y-31782000D01*
X47244000Y-39092000D02*
X47244000Y-38322000D01*
%TO.C,R4*%
X44296000Y-31782000D02*
X41556000Y-31782000D01*
X41556000Y-31782000D02*
X41556000Y-38322000D01*
X41556000Y-38322000D02*
X44296000Y-38322000D01*
X44296000Y-38322000D02*
X44296000Y-31782000D01*
X42926000Y-31012000D02*
X42926000Y-31782000D01*
X42926000Y-39092000D02*
X42926000Y-38322000D01*
%TO.C,R3*%
X12292000Y-31782000D02*
X9552000Y-31782000D01*
X9552000Y-31782000D02*
X9552000Y-38322000D01*
X9552000Y-38322000D02*
X12292000Y-38322000D01*
X12292000Y-38322000D02*
X12292000Y-31782000D01*
X10922000Y-31012000D02*
X10922000Y-31782000D01*
X10922000Y-39092000D02*
X10922000Y-38322000D01*
%TO.C,R2*%
X16356000Y-31782000D02*
X13616000Y-31782000D01*
X13616000Y-31782000D02*
X13616000Y-38322000D01*
X13616000Y-38322000D02*
X16356000Y-38322000D01*
X16356000Y-38322000D02*
X16356000Y-31782000D01*
X14986000Y-31012000D02*
X14986000Y-31782000D01*
X14986000Y-39092000D02*
X14986000Y-38322000D01*
%TO.C,R1*%
X8228000Y-31782000D02*
X5488000Y-31782000D01*
X5488000Y-31782000D02*
X5488000Y-38322000D01*
X5488000Y-38322000D02*
X8228000Y-38322000D01*
X8228000Y-38322000D02*
X8228000Y-31782000D01*
X6858000Y-31012000D02*
X6858000Y-31782000D01*
X6858000Y-39092000D02*
X6858000Y-38322000D01*
D10*
%TO.C,M2*%
X9906000Y-47498000D02*
X39906000Y-47498000D01*
X9906000Y-100838000D02*
X39906000Y-100838000D01*
X39906000Y-100838000D02*
X39906000Y-47498000D01*
X9906000Y-47498000D02*
X9906000Y-100838000D01*
%TO.C,M1*%
X41212000Y-91324000D02*
X41212000Y-51724000D01*
X41212000Y-51724000D02*
X48712000Y-51724000D01*
X48712000Y-51724000D02*
X48712000Y-91324000D01*
X48712000Y-91324000D02*
X41212000Y-91324000D01*
D11*
%TO.C,JP2*%
X5528000Y-70164000D02*
X8188000Y-70164000D01*
X5528000Y-65024000D02*
X5528000Y-70164000D01*
X8188000Y-65024000D02*
X8188000Y-70164000D01*
X5528000Y-65024000D02*
X8188000Y-65024000D01*
X5528000Y-63754000D02*
X5528000Y-62424000D01*
X5528000Y-62424000D02*
X6858000Y-62424000D01*
%TO.C,JP1*%
X5528000Y-58988000D02*
X8188000Y-58988000D01*
X5528000Y-56388000D02*
X5528000Y-58988000D01*
X8188000Y-56388000D02*
X8188000Y-58988000D01*
X5528000Y-56388000D02*
X8188000Y-56388000D01*
X5528000Y-55118000D02*
X5528000Y-53788000D01*
X5528000Y-53788000D02*
X6858000Y-53788000D01*
%TO.C,J9*%
X86420000Y-85260000D02*
X85370000Y-85260000D01*
X85370000Y-86310000D02*
X85370000Y-85260000D01*
X94770000Y-91360000D02*
X94770000Y-100160000D01*
X94770000Y-100160000D02*
X85570000Y-100160000D01*
X92070000Y-85460000D02*
X94770000Y-85460000D01*
X94770000Y-85460000D02*
X94770000Y-87360000D01*
X85570000Y-100160000D02*
X85570000Y-85460000D01*
X85570000Y-85460000D02*
X88170000Y-85460000D01*
%TO.C,J8*%
X79308000Y-25460000D02*
X79308000Y-22800000D01*
X58928000Y-25460000D02*
X79308000Y-25460000D01*
X58928000Y-22800000D02*
X79308000Y-22800000D01*
X58928000Y-25460000D02*
X58928000Y-22800000D01*
X57658000Y-25460000D02*
X56328000Y-25460000D01*
X56328000Y-25460000D02*
X56328000Y-24130000D01*
D10*
%TO.C,J7*%
X72263000Y-96266000D02*
X72263000Y-95631000D01*
X76073000Y-96266000D02*
X72263000Y-96266000D01*
X76073000Y-95631000D02*
X76073000Y-96266000D01*
X65913000Y-95631000D02*
X65913000Y-94996000D01*
X81788000Y-95631000D02*
X65913000Y-95631000D01*
X81788000Y-94996000D02*
X81788000Y-95631000D01*
X83058000Y-87376000D02*
X83058000Y-94996000D01*
X64643000Y-87376000D02*
X83058000Y-87376000D01*
X64643000Y-94996000D02*
X64643000Y-87376000D01*
X83058000Y-94996000D02*
X64643000Y-94996000D01*
D11*
%TO.C,J6*%
X36212000Y-21100000D02*
X36212000Y-27120000D01*
X36212000Y-27120000D02*
X41512000Y-27120000D01*
X41512000Y-27120000D02*
X41512000Y-21100000D01*
X41512000Y-21100000D02*
X36212000Y-21100000D01*
X35922000Y-22130000D02*
X35922000Y-26130000D01*
X37592000Y-27120000D02*
X37592000Y-26120000D01*
X37592000Y-26120000D02*
X40132000Y-26120000D01*
X40132000Y-26120000D02*
X40132000Y-27120000D01*
X37592000Y-26120000D02*
X37842000Y-25590000D01*
X37842000Y-25590000D02*
X39882000Y-25590000D01*
X39882000Y-25590000D02*
X40132000Y-26120000D01*
X37842000Y-27120000D02*
X37842000Y-26120000D01*
X39882000Y-27120000D02*
X39882000Y-26120000D01*
X36792000Y-21100000D02*
X36792000Y-21700000D01*
X36792000Y-21700000D02*
X38392000Y-21700000D01*
X38392000Y-21700000D02*
X38392000Y-21100000D01*
X39332000Y-21100000D02*
X39332000Y-21700000D01*
X39332000Y-21700000D02*
X40932000Y-21700000D01*
X40932000Y-21700000D02*
X40932000Y-21100000D01*
%TO.C,J5*%
X43832000Y-21100000D02*
X43832000Y-27120000D01*
X43832000Y-27120000D02*
X51672000Y-27120000D01*
X51672000Y-27120000D02*
X51672000Y-21100000D01*
X51672000Y-21100000D02*
X43832000Y-21100000D01*
X43542000Y-22130000D02*
X43542000Y-26130000D01*
X45212000Y-27120000D02*
X45212000Y-26120000D01*
X45212000Y-26120000D02*
X50292000Y-26120000D01*
X50292000Y-26120000D02*
X50292000Y-27120000D01*
X45212000Y-26120000D02*
X45462000Y-25590000D01*
X45462000Y-25590000D02*
X50042000Y-25590000D01*
X50042000Y-25590000D02*
X50292000Y-26120000D01*
X45462000Y-27120000D02*
X45462000Y-26120000D01*
X50042000Y-27120000D02*
X50042000Y-26120000D01*
X44412000Y-21100000D02*
X44412000Y-21700000D01*
X44412000Y-21700000D02*
X46012000Y-21700000D01*
X46012000Y-21700000D02*
X46012000Y-21100000D01*
X46952000Y-21100000D02*
X46952000Y-21700000D01*
X46952000Y-21700000D02*
X48552000Y-21700000D01*
X48552000Y-21700000D02*
X48552000Y-21100000D01*
X49492000Y-21100000D02*
X49492000Y-21700000D01*
X49492000Y-21700000D02*
X51092000Y-21700000D01*
X51092000Y-21700000D02*
X51092000Y-21100000D01*
%TO.C,J4*%
X20972000Y-21100000D02*
X20972000Y-27120000D01*
X20972000Y-27120000D02*
X26272000Y-27120000D01*
X26272000Y-27120000D02*
X26272000Y-21100000D01*
X26272000Y-21100000D02*
X20972000Y-21100000D01*
X20682000Y-22130000D02*
X20682000Y-26130000D01*
X22352000Y-27120000D02*
X22352000Y-26120000D01*
X22352000Y-26120000D02*
X24892000Y-26120000D01*
X24892000Y-26120000D02*
X24892000Y-27120000D01*
X22352000Y-26120000D02*
X22602000Y-25590000D01*
X22602000Y-25590000D02*
X24642000Y-25590000D01*
X24642000Y-25590000D02*
X24892000Y-26120000D01*
X22602000Y-27120000D02*
X22602000Y-26120000D01*
X24642000Y-27120000D02*
X24642000Y-26120000D01*
X21552000Y-21100000D02*
X21552000Y-21700000D01*
X21552000Y-21700000D02*
X23152000Y-21700000D01*
X23152000Y-21700000D02*
X23152000Y-21100000D01*
X24092000Y-21100000D02*
X24092000Y-21700000D01*
X24092000Y-21700000D02*
X25692000Y-21700000D01*
X25692000Y-21700000D02*
X25692000Y-21100000D01*
%TO.C,J3*%
X28592000Y-21100000D02*
X28592000Y-27120000D01*
X28592000Y-27120000D02*
X33892000Y-27120000D01*
X33892000Y-27120000D02*
X33892000Y-21100000D01*
X33892000Y-21100000D02*
X28592000Y-21100000D01*
X28302000Y-22130000D02*
X28302000Y-26130000D01*
X29972000Y-27120000D02*
X29972000Y-26120000D01*
X29972000Y-26120000D02*
X32512000Y-26120000D01*
X32512000Y-26120000D02*
X32512000Y-27120000D01*
X29972000Y-26120000D02*
X30222000Y-25590000D01*
X30222000Y-25590000D02*
X32262000Y-25590000D01*
X32262000Y-25590000D02*
X32512000Y-26120000D01*
X30222000Y-27120000D02*
X30222000Y-26120000D01*
X32262000Y-27120000D02*
X32262000Y-26120000D01*
X29172000Y-21100000D02*
X29172000Y-21700000D01*
X29172000Y-21700000D02*
X30772000Y-21700000D01*
X30772000Y-21700000D02*
X30772000Y-21100000D01*
X31712000Y-21100000D02*
X31712000Y-21700000D01*
X31712000Y-21700000D02*
X33312000Y-21700000D01*
X33312000Y-21700000D02*
X33312000Y-21100000D01*
%TO.C,J2*%
X5986000Y-21100000D02*
X5986000Y-27120000D01*
X5986000Y-27120000D02*
X18906000Y-27120000D01*
X18906000Y-27120000D02*
X18906000Y-21100000D01*
X18906000Y-21100000D02*
X5986000Y-21100000D01*
X5696000Y-22130000D02*
X5696000Y-26130000D01*
X7366000Y-27120000D02*
X7366000Y-26120000D01*
X7366000Y-26120000D02*
X17526000Y-26120000D01*
X17526000Y-26120000D02*
X17526000Y-27120000D01*
X7366000Y-26120000D02*
X7616000Y-25590000D01*
X7616000Y-25590000D02*
X17276000Y-25590000D01*
X17276000Y-25590000D02*
X17526000Y-26120000D01*
X7616000Y-27120000D02*
X7616000Y-26120000D01*
X17276000Y-27120000D02*
X17276000Y-26120000D01*
X6566000Y-21100000D02*
X6566000Y-21700000D01*
X6566000Y-21700000D02*
X8166000Y-21700000D01*
X8166000Y-21700000D02*
X8166000Y-21100000D01*
X9106000Y-21100000D02*
X9106000Y-21700000D01*
X9106000Y-21700000D02*
X10706000Y-21700000D01*
X10706000Y-21700000D02*
X10706000Y-21100000D01*
X11646000Y-21100000D02*
X11646000Y-21700000D01*
X11646000Y-21700000D02*
X13246000Y-21700000D01*
X13246000Y-21700000D02*
X13246000Y-21100000D01*
X14186000Y-21100000D02*
X14186000Y-21700000D01*
X14186000Y-21700000D02*
X15786000Y-21700000D01*
X15786000Y-21700000D02*
X15786000Y-21100000D01*
X16726000Y-21100000D02*
X16726000Y-21700000D01*
X16726000Y-21700000D02*
X18326000Y-21700000D01*
X18326000Y-21700000D02*
X18326000Y-21100000D01*
%TO.C,J1*%
X50228000Y-88224000D02*
X62928000Y-88224000D01*
X62928000Y-88224000D02*
X62928000Y-100624000D01*
X50228000Y-100624000D02*
X62928000Y-100624000D01*
X50228000Y-88224000D02*
X50228000Y-100624000D01*
%TO.C,C20*%
X82376000Y-83296000D02*
G75*
G03*
X82376000Y-83296000I-2620000J0D01*
G01*
X78716000Y-83296000D02*
X77176000Y-83296000D01*
X82336000Y-83296000D02*
X80796000Y-83296000D01*
X78716000Y-83336000D02*
X77176000Y-83336000D01*
X82336000Y-83336000D02*
X80796000Y-83336000D01*
X82335000Y-83376000D02*
X80796000Y-83376000D01*
X78716000Y-83376000D02*
X77177000Y-83376000D01*
X82334000Y-83416000D02*
X80796000Y-83416000D01*
X78716000Y-83416000D02*
X77178000Y-83416000D01*
X82332000Y-83456000D02*
X80796000Y-83456000D01*
X78716000Y-83456000D02*
X77180000Y-83456000D01*
X82329000Y-83496000D02*
X80796000Y-83496000D01*
X78716000Y-83496000D02*
X77183000Y-83496000D01*
X82325000Y-83536000D02*
X80796000Y-83536000D01*
X78716000Y-83536000D02*
X77187000Y-83536000D01*
X82321000Y-83576000D02*
X80796000Y-83576000D01*
X78716000Y-83576000D02*
X77191000Y-83576000D01*
X82317000Y-83616000D02*
X80796000Y-83616000D01*
X78716000Y-83616000D02*
X77195000Y-83616000D01*
X82312000Y-83656000D02*
X80796000Y-83656000D01*
X78716000Y-83656000D02*
X77200000Y-83656000D01*
X82306000Y-83696000D02*
X80796000Y-83696000D01*
X78716000Y-83696000D02*
X77206000Y-83696000D01*
X82299000Y-83736000D02*
X80796000Y-83736000D01*
X78716000Y-83736000D02*
X77213000Y-83736000D01*
X82292000Y-83776000D02*
X80796000Y-83776000D01*
X78716000Y-83776000D02*
X77220000Y-83776000D01*
X82284000Y-83816000D02*
X80796000Y-83816000D01*
X78716000Y-83816000D02*
X77228000Y-83816000D01*
X82276000Y-83856000D02*
X80796000Y-83856000D01*
X78716000Y-83856000D02*
X77236000Y-83856000D01*
X82267000Y-83896000D02*
X80796000Y-83896000D01*
X78716000Y-83896000D02*
X77245000Y-83896000D01*
X82257000Y-83936000D02*
X80796000Y-83936000D01*
X78716000Y-83936000D02*
X77255000Y-83936000D01*
X82247000Y-83976000D02*
X80796000Y-83976000D01*
X78716000Y-83976000D02*
X77265000Y-83976000D01*
X82236000Y-84017000D02*
X80796000Y-84017000D01*
X78716000Y-84017000D02*
X77276000Y-84017000D01*
X82224000Y-84057000D02*
X80796000Y-84057000D01*
X78716000Y-84057000D02*
X77288000Y-84057000D01*
X82211000Y-84097000D02*
X80796000Y-84097000D01*
X78716000Y-84097000D02*
X77301000Y-84097000D01*
X82198000Y-84137000D02*
X80796000Y-84137000D01*
X78716000Y-84137000D02*
X77314000Y-84137000D01*
X82184000Y-84177000D02*
X80796000Y-84177000D01*
X78716000Y-84177000D02*
X77328000Y-84177000D01*
X82170000Y-84217000D02*
X80796000Y-84217000D01*
X78716000Y-84217000D02*
X77342000Y-84217000D01*
X82154000Y-84257000D02*
X80796000Y-84257000D01*
X78716000Y-84257000D02*
X77358000Y-84257000D01*
X82138000Y-84297000D02*
X80796000Y-84297000D01*
X78716000Y-84297000D02*
X77374000Y-84297000D01*
X82121000Y-84337000D02*
X80796000Y-84337000D01*
X78716000Y-84337000D02*
X77391000Y-84337000D01*
X82104000Y-84377000D02*
X80796000Y-84377000D01*
X78716000Y-84377000D02*
X77408000Y-84377000D01*
X82085000Y-84417000D02*
X80796000Y-84417000D01*
X78716000Y-84417000D02*
X77427000Y-84417000D01*
X82066000Y-84457000D02*
X80796000Y-84457000D01*
X78716000Y-84457000D02*
X77446000Y-84457000D01*
X82046000Y-84497000D02*
X80796000Y-84497000D01*
X78716000Y-84497000D02*
X77466000Y-84497000D01*
X82024000Y-84537000D02*
X80796000Y-84537000D01*
X78716000Y-84537000D02*
X77488000Y-84537000D01*
X82003000Y-84577000D02*
X80796000Y-84577000D01*
X78716000Y-84577000D02*
X77509000Y-84577000D01*
X81980000Y-84617000D02*
X80796000Y-84617000D01*
X78716000Y-84617000D02*
X77532000Y-84617000D01*
X81956000Y-84657000D02*
X80796000Y-84657000D01*
X78716000Y-84657000D02*
X77556000Y-84657000D01*
X81931000Y-84697000D02*
X80796000Y-84697000D01*
X78716000Y-84697000D02*
X77581000Y-84697000D01*
X81905000Y-84737000D02*
X80796000Y-84737000D01*
X78716000Y-84737000D02*
X77607000Y-84737000D01*
X81878000Y-84777000D02*
X80796000Y-84777000D01*
X78716000Y-84777000D02*
X77634000Y-84777000D01*
X81851000Y-84817000D02*
X80796000Y-84817000D01*
X78716000Y-84817000D02*
X77661000Y-84817000D01*
X81821000Y-84857000D02*
X80796000Y-84857000D01*
X78716000Y-84857000D02*
X77691000Y-84857000D01*
X81791000Y-84897000D02*
X80796000Y-84897000D01*
X78716000Y-84897000D02*
X77721000Y-84897000D01*
X81760000Y-84937000D02*
X80796000Y-84937000D01*
X78716000Y-84937000D02*
X77752000Y-84937000D01*
X81727000Y-84977000D02*
X80796000Y-84977000D01*
X78716000Y-84977000D02*
X77785000Y-84977000D01*
X81693000Y-85017000D02*
X80796000Y-85017000D01*
X78716000Y-85017000D02*
X77819000Y-85017000D01*
X81657000Y-85057000D02*
X80796000Y-85057000D01*
X78716000Y-85057000D02*
X77855000Y-85057000D01*
X81620000Y-85097000D02*
X80796000Y-85097000D01*
X78716000Y-85097000D02*
X77892000Y-85097000D01*
X81582000Y-85137000D02*
X80796000Y-85137000D01*
X78716000Y-85137000D02*
X77930000Y-85137000D01*
X81541000Y-85177000D02*
X80796000Y-85177000D01*
X78716000Y-85177000D02*
X77971000Y-85177000D01*
X81499000Y-85217000D02*
X80796000Y-85217000D01*
X78716000Y-85217000D02*
X78013000Y-85217000D01*
X81455000Y-85257000D02*
X80796000Y-85257000D01*
X78716000Y-85257000D02*
X78057000Y-85257000D01*
X81409000Y-85297000D02*
X80796000Y-85297000D01*
X78716000Y-85297000D02*
X78103000Y-85297000D01*
X81361000Y-85337000D02*
X78151000Y-85337000D01*
X81310000Y-85377000D02*
X78202000Y-85377000D01*
X81256000Y-85417000D02*
X78256000Y-85417000D01*
X81199000Y-85457000D02*
X78313000Y-85457000D01*
X81139000Y-85497000D02*
X78373000Y-85497000D01*
X81075000Y-85537000D02*
X78437000Y-85537000D01*
X81007000Y-85577000D02*
X78505000Y-85577000D01*
X80934000Y-85617000D02*
X78578000Y-85617000D01*
X80854000Y-85657000D02*
X78658000Y-85657000D01*
X80767000Y-85697000D02*
X78745000Y-85697000D01*
X80671000Y-85737000D02*
X78841000Y-85737000D01*
X80561000Y-85777000D02*
X78951000Y-85777000D01*
X80433000Y-85817000D02*
X79079000Y-85817000D01*
X80274000Y-85857000D02*
X79238000Y-85857000D01*
X80040000Y-85897000D02*
X79472000Y-85897000D01*
X81231000Y-80491225D02*
X81231000Y-80991225D01*
X81481000Y-80741225D02*
X80981000Y-80741225D01*
%TO.C,C19*%
X69446000Y-64908000D02*
X69446000Y-68148000D01*
X67206000Y-64908000D02*
X67206000Y-68148000D01*
X69446000Y-64908000D02*
X69381000Y-64908000D01*
X67271000Y-64908000D02*
X67206000Y-64908000D01*
X69446000Y-68148000D02*
X69381000Y-68148000D01*
X67271000Y-68148000D02*
X67206000Y-68148000D01*
%TO.C,C18*%
X84940000Y-64908000D02*
X84940000Y-68148000D01*
X82700000Y-64908000D02*
X82700000Y-68148000D01*
X84940000Y-64908000D02*
X84875000Y-64908000D01*
X82765000Y-64908000D02*
X82700000Y-64908000D01*
X84940000Y-68148000D02*
X84875000Y-68148000D01*
X82765000Y-68148000D02*
X82700000Y-68148000D01*
%TO.C,C17*%
X51458000Y-78856000D02*
X51458000Y-75616000D01*
X53698000Y-78856000D02*
X53698000Y-75616000D01*
X51458000Y-78856000D02*
X51523000Y-78856000D01*
X53633000Y-78856000D02*
X53698000Y-78856000D01*
X51458000Y-75616000D02*
X51523000Y-75616000D01*
X53633000Y-75616000D02*
X53698000Y-75616000D01*
%TO.C,C16*%
X28806000Y-42810000D02*
X28806000Y-46050000D01*
X26566000Y-42810000D02*
X26566000Y-46050000D01*
X28806000Y-42810000D02*
X28741000Y-42810000D01*
X26631000Y-42810000D02*
X26566000Y-42810000D01*
X28806000Y-46050000D02*
X28741000Y-46050000D01*
X26631000Y-46050000D02*
X26566000Y-46050000D01*
%TO.C,C15*%
X39728000Y-29602000D02*
X39728000Y-32842000D01*
X37488000Y-29602000D02*
X37488000Y-32842000D01*
X39728000Y-29602000D02*
X39663000Y-29602000D01*
X37553000Y-29602000D02*
X37488000Y-29602000D01*
X39728000Y-32842000D02*
X39663000Y-32842000D01*
X37553000Y-32842000D02*
X37488000Y-32842000D01*
%TO.C,C14*%
X74248000Y-83296000D02*
G75*
G03*
X74248000Y-83296000I-2620000J0D01*
G01*
X70588000Y-83296000D02*
X69048000Y-83296000D01*
X74208000Y-83296000D02*
X72668000Y-83296000D01*
X70588000Y-83336000D02*
X69048000Y-83336000D01*
X74208000Y-83336000D02*
X72668000Y-83336000D01*
X74207000Y-83376000D02*
X72668000Y-83376000D01*
X70588000Y-83376000D02*
X69049000Y-83376000D01*
X74206000Y-83416000D02*
X72668000Y-83416000D01*
X70588000Y-83416000D02*
X69050000Y-83416000D01*
X74204000Y-83456000D02*
X72668000Y-83456000D01*
X70588000Y-83456000D02*
X69052000Y-83456000D01*
X74201000Y-83496000D02*
X72668000Y-83496000D01*
X70588000Y-83496000D02*
X69055000Y-83496000D01*
X74197000Y-83536000D02*
X72668000Y-83536000D01*
X70588000Y-83536000D02*
X69059000Y-83536000D01*
X74193000Y-83576000D02*
X72668000Y-83576000D01*
X70588000Y-83576000D02*
X69063000Y-83576000D01*
X74189000Y-83616000D02*
X72668000Y-83616000D01*
X70588000Y-83616000D02*
X69067000Y-83616000D01*
X74184000Y-83656000D02*
X72668000Y-83656000D01*
X70588000Y-83656000D02*
X69072000Y-83656000D01*
X74178000Y-83696000D02*
X72668000Y-83696000D01*
X70588000Y-83696000D02*
X69078000Y-83696000D01*
X74171000Y-83736000D02*
X72668000Y-83736000D01*
X70588000Y-83736000D02*
X69085000Y-83736000D01*
X74164000Y-83776000D02*
X72668000Y-83776000D01*
X70588000Y-83776000D02*
X69092000Y-83776000D01*
X74156000Y-83816000D02*
X72668000Y-83816000D01*
X70588000Y-83816000D02*
X69100000Y-83816000D01*
X74148000Y-83856000D02*
X72668000Y-83856000D01*
X70588000Y-83856000D02*
X69108000Y-83856000D01*
X74139000Y-83896000D02*
X72668000Y-83896000D01*
X70588000Y-83896000D02*
X69117000Y-83896000D01*
X74129000Y-83936000D02*
X72668000Y-83936000D01*
X70588000Y-83936000D02*
X69127000Y-83936000D01*
X74119000Y-83976000D02*
X72668000Y-83976000D01*
X70588000Y-83976000D02*
X69137000Y-83976000D01*
X74108000Y-84017000D02*
X72668000Y-84017000D01*
X70588000Y-84017000D02*
X69148000Y-84017000D01*
X74096000Y-84057000D02*
X72668000Y-84057000D01*
X70588000Y-84057000D02*
X69160000Y-84057000D01*
X74083000Y-84097000D02*
X72668000Y-84097000D01*
X70588000Y-84097000D02*
X69173000Y-84097000D01*
X74070000Y-84137000D02*
X72668000Y-84137000D01*
X70588000Y-84137000D02*
X69186000Y-84137000D01*
X74056000Y-84177000D02*
X72668000Y-84177000D01*
X70588000Y-84177000D02*
X69200000Y-84177000D01*
X74042000Y-84217000D02*
X72668000Y-84217000D01*
X70588000Y-84217000D02*
X69214000Y-84217000D01*
X74026000Y-84257000D02*
X72668000Y-84257000D01*
X70588000Y-84257000D02*
X69230000Y-84257000D01*
X74010000Y-84297000D02*
X72668000Y-84297000D01*
X70588000Y-84297000D02*
X69246000Y-84297000D01*
X73993000Y-84337000D02*
X72668000Y-84337000D01*
X70588000Y-84337000D02*
X69263000Y-84337000D01*
X73976000Y-84377000D02*
X72668000Y-84377000D01*
X70588000Y-84377000D02*
X69280000Y-84377000D01*
X73957000Y-84417000D02*
X72668000Y-84417000D01*
X70588000Y-84417000D02*
X69299000Y-84417000D01*
X73938000Y-84457000D02*
X72668000Y-84457000D01*
X70588000Y-84457000D02*
X69318000Y-84457000D01*
X73918000Y-84497000D02*
X72668000Y-84497000D01*
X70588000Y-84497000D02*
X69338000Y-84497000D01*
X73896000Y-84537000D02*
X72668000Y-84537000D01*
X70588000Y-84537000D02*
X69360000Y-84537000D01*
X73875000Y-84577000D02*
X72668000Y-84577000D01*
X70588000Y-84577000D02*
X69381000Y-84577000D01*
X73852000Y-84617000D02*
X72668000Y-84617000D01*
X70588000Y-84617000D02*
X69404000Y-84617000D01*
X73828000Y-84657000D02*
X72668000Y-84657000D01*
X70588000Y-84657000D02*
X69428000Y-84657000D01*
X73803000Y-84697000D02*
X72668000Y-84697000D01*
X70588000Y-84697000D02*
X69453000Y-84697000D01*
X73777000Y-84737000D02*
X72668000Y-84737000D01*
X70588000Y-84737000D02*
X69479000Y-84737000D01*
X73750000Y-84777000D02*
X72668000Y-84777000D01*
X70588000Y-84777000D02*
X69506000Y-84777000D01*
X73723000Y-84817000D02*
X72668000Y-84817000D01*
X70588000Y-84817000D02*
X69533000Y-84817000D01*
X73693000Y-84857000D02*
X72668000Y-84857000D01*
X70588000Y-84857000D02*
X69563000Y-84857000D01*
X73663000Y-84897000D02*
X72668000Y-84897000D01*
X70588000Y-84897000D02*
X69593000Y-84897000D01*
X73632000Y-84937000D02*
X72668000Y-84937000D01*
X70588000Y-84937000D02*
X69624000Y-84937000D01*
X73599000Y-84977000D02*
X72668000Y-84977000D01*
X70588000Y-84977000D02*
X69657000Y-84977000D01*
X73565000Y-85017000D02*
X72668000Y-85017000D01*
X70588000Y-85017000D02*
X69691000Y-85017000D01*
X73529000Y-85057000D02*
X72668000Y-85057000D01*
X70588000Y-85057000D02*
X69727000Y-85057000D01*
X73492000Y-85097000D02*
X72668000Y-85097000D01*
X70588000Y-85097000D02*
X69764000Y-85097000D01*
X73454000Y-85137000D02*
X72668000Y-85137000D01*
X70588000Y-85137000D02*
X69802000Y-85137000D01*
X73413000Y-85177000D02*
X72668000Y-85177000D01*
X70588000Y-85177000D02*
X69843000Y-85177000D01*
X73371000Y-85217000D02*
X72668000Y-85217000D01*
X70588000Y-85217000D02*
X69885000Y-85217000D01*
X73327000Y-85257000D02*
X72668000Y-85257000D01*
X70588000Y-85257000D02*
X69929000Y-85257000D01*
X73281000Y-85297000D02*
X72668000Y-85297000D01*
X70588000Y-85297000D02*
X69975000Y-85297000D01*
X73233000Y-85337000D02*
X70023000Y-85337000D01*
X73182000Y-85377000D02*
X70074000Y-85377000D01*
X73128000Y-85417000D02*
X70128000Y-85417000D01*
X73071000Y-85457000D02*
X70185000Y-85457000D01*
X73011000Y-85497000D02*
X70245000Y-85497000D01*
X72947000Y-85537000D02*
X70309000Y-85537000D01*
X72879000Y-85577000D02*
X70377000Y-85577000D01*
X72806000Y-85617000D02*
X70450000Y-85617000D01*
X72726000Y-85657000D02*
X70530000Y-85657000D01*
X72639000Y-85697000D02*
X70617000Y-85697000D01*
X72543000Y-85737000D02*
X70713000Y-85737000D01*
X72433000Y-85777000D02*
X70823000Y-85777000D01*
X72305000Y-85817000D02*
X70951000Y-85817000D01*
X72146000Y-85857000D02*
X71110000Y-85857000D01*
X71912000Y-85897000D02*
X71344000Y-85897000D01*
X73103000Y-80491225D02*
X73103000Y-80991225D01*
X73353000Y-80741225D02*
X72853000Y-80741225D01*
%TO.C,C13*%
X42048000Y-93114000D02*
X45288000Y-93114000D01*
X42048000Y-95354000D02*
X45288000Y-95354000D01*
X42048000Y-93114000D02*
X42048000Y-93179000D01*
X42048000Y-95289000D02*
X42048000Y-95354000D01*
X45288000Y-93114000D02*
X45288000Y-93179000D01*
X45288000Y-95289000D02*
X45288000Y-95354000D01*
%TO.C,C12*%
X7724000Y-88022000D02*
X7724000Y-91262000D01*
X5484000Y-88022000D02*
X5484000Y-91262000D01*
X7724000Y-88022000D02*
X7659000Y-88022000D01*
X5549000Y-88022000D02*
X5484000Y-88022000D01*
X7724000Y-91262000D02*
X7659000Y-91262000D01*
X5549000Y-91262000D02*
X5484000Y-91262000D01*
%TO.C,C11*%
X82700000Y-74284000D02*
X82700000Y-71044000D01*
X84940000Y-74284000D02*
X84940000Y-71044000D01*
X82700000Y-74284000D02*
X82765000Y-74284000D01*
X84875000Y-74284000D02*
X84940000Y-74284000D01*
X82700000Y-71044000D02*
X82765000Y-71044000D01*
X84875000Y-71044000D02*
X84940000Y-71044000D01*
%TO.C,C10*%
X20170000Y-42810000D02*
X20170000Y-46050000D01*
X17930000Y-42810000D02*
X17930000Y-46050000D01*
X20170000Y-42810000D02*
X20105000Y-42810000D01*
X17995000Y-42810000D02*
X17930000Y-42810000D01*
X20170000Y-46050000D02*
X20105000Y-46050000D01*
X17995000Y-46050000D02*
X17930000Y-46050000D01*
%TO.C,C9*%
X24488000Y-42810000D02*
X24488000Y-46050000D01*
X22248000Y-42810000D02*
X22248000Y-46050000D01*
X24488000Y-42810000D02*
X24423000Y-42810000D01*
X22313000Y-42810000D02*
X22248000Y-42810000D01*
X24488000Y-46050000D02*
X24423000Y-46050000D01*
X22313000Y-46050000D02*
X22248000Y-46050000D01*
%TO.C,C8*%
X68660000Y-57674000D02*
G75*
G03*
X68660000Y-57674000I-2620000J0D01*
G01*
X67080000Y-57674000D02*
X68620000Y-57674000D01*
X63460000Y-57674000D02*
X65000000Y-57674000D01*
X67080000Y-57634000D02*
X68620000Y-57634000D01*
X63460000Y-57634000D02*
X65000000Y-57634000D01*
X63461000Y-57594000D02*
X65000000Y-57594000D01*
X67080000Y-57594000D02*
X68619000Y-57594000D01*
X63462000Y-57554000D02*
X65000000Y-57554000D01*
X67080000Y-57554000D02*
X68618000Y-57554000D01*
X63464000Y-57514000D02*
X65000000Y-57514000D01*
X67080000Y-57514000D02*
X68616000Y-57514000D01*
X63467000Y-57474000D02*
X65000000Y-57474000D01*
X67080000Y-57474000D02*
X68613000Y-57474000D01*
X63471000Y-57434000D02*
X65000000Y-57434000D01*
X67080000Y-57434000D02*
X68609000Y-57434000D01*
X63475000Y-57394000D02*
X65000000Y-57394000D01*
X67080000Y-57394000D02*
X68605000Y-57394000D01*
X63479000Y-57354000D02*
X65000000Y-57354000D01*
X67080000Y-57354000D02*
X68601000Y-57354000D01*
X63484000Y-57314000D02*
X65000000Y-57314000D01*
X67080000Y-57314000D02*
X68596000Y-57314000D01*
X63490000Y-57274000D02*
X65000000Y-57274000D01*
X67080000Y-57274000D02*
X68590000Y-57274000D01*
X63497000Y-57234000D02*
X65000000Y-57234000D01*
X67080000Y-57234000D02*
X68583000Y-57234000D01*
X63504000Y-57194000D02*
X65000000Y-57194000D01*
X67080000Y-57194000D02*
X68576000Y-57194000D01*
X63512000Y-57154000D02*
X65000000Y-57154000D01*
X67080000Y-57154000D02*
X68568000Y-57154000D01*
X63520000Y-57114000D02*
X65000000Y-57114000D01*
X67080000Y-57114000D02*
X68560000Y-57114000D01*
X63529000Y-57074000D02*
X65000000Y-57074000D01*
X67080000Y-57074000D02*
X68551000Y-57074000D01*
X63539000Y-57034000D02*
X65000000Y-57034000D01*
X67080000Y-57034000D02*
X68541000Y-57034000D01*
X63549000Y-56994000D02*
X65000000Y-56994000D01*
X67080000Y-56994000D02*
X68531000Y-56994000D01*
X63560000Y-56953000D02*
X65000000Y-56953000D01*
X67080000Y-56953000D02*
X68520000Y-56953000D01*
X63572000Y-56913000D02*
X65000000Y-56913000D01*
X67080000Y-56913000D02*
X68508000Y-56913000D01*
X63585000Y-56873000D02*
X65000000Y-56873000D01*
X67080000Y-56873000D02*
X68495000Y-56873000D01*
X63598000Y-56833000D02*
X65000000Y-56833000D01*
X67080000Y-56833000D02*
X68482000Y-56833000D01*
X63612000Y-56793000D02*
X65000000Y-56793000D01*
X67080000Y-56793000D02*
X68468000Y-56793000D01*
X63626000Y-56753000D02*
X65000000Y-56753000D01*
X67080000Y-56753000D02*
X68454000Y-56753000D01*
X63642000Y-56713000D02*
X65000000Y-56713000D01*
X67080000Y-56713000D02*
X68438000Y-56713000D01*
X63658000Y-56673000D02*
X65000000Y-56673000D01*
X67080000Y-56673000D02*
X68422000Y-56673000D01*
X63675000Y-56633000D02*
X65000000Y-56633000D01*
X67080000Y-56633000D02*
X68405000Y-56633000D01*
X63692000Y-56593000D02*
X65000000Y-56593000D01*
X67080000Y-56593000D02*
X68388000Y-56593000D01*
X63711000Y-56553000D02*
X65000000Y-56553000D01*
X67080000Y-56553000D02*
X68369000Y-56553000D01*
X63730000Y-56513000D02*
X65000000Y-56513000D01*
X67080000Y-56513000D02*
X68350000Y-56513000D01*
X63750000Y-56473000D02*
X65000000Y-56473000D01*
X67080000Y-56473000D02*
X68330000Y-56473000D01*
X63772000Y-56433000D02*
X65000000Y-56433000D01*
X67080000Y-56433000D02*
X68308000Y-56433000D01*
X63793000Y-56393000D02*
X65000000Y-56393000D01*
X67080000Y-56393000D02*
X68287000Y-56393000D01*
X63816000Y-56353000D02*
X65000000Y-56353000D01*
X67080000Y-56353000D02*
X68264000Y-56353000D01*
X63840000Y-56313000D02*
X65000000Y-56313000D01*
X67080000Y-56313000D02*
X68240000Y-56313000D01*
X63865000Y-56273000D02*
X65000000Y-56273000D01*
X67080000Y-56273000D02*
X68215000Y-56273000D01*
X63891000Y-56233000D02*
X65000000Y-56233000D01*
X67080000Y-56233000D02*
X68189000Y-56233000D01*
X63918000Y-56193000D02*
X65000000Y-56193000D01*
X67080000Y-56193000D02*
X68162000Y-56193000D01*
X63945000Y-56153000D02*
X65000000Y-56153000D01*
X67080000Y-56153000D02*
X68135000Y-56153000D01*
X63975000Y-56113000D02*
X65000000Y-56113000D01*
X67080000Y-56113000D02*
X68105000Y-56113000D01*
X64005000Y-56073000D02*
X65000000Y-56073000D01*
X67080000Y-56073000D02*
X68075000Y-56073000D01*
X64036000Y-56033000D02*
X65000000Y-56033000D01*
X67080000Y-56033000D02*
X68044000Y-56033000D01*
X64069000Y-55993000D02*
X65000000Y-55993000D01*
X67080000Y-55993000D02*
X68011000Y-55993000D01*
X64103000Y-55953000D02*
X65000000Y-55953000D01*
X67080000Y-55953000D02*
X67977000Y-55953000D01*
X64139000Y-55913000D02*
X65000000Y-55913000D01*
X67080000Y-55913000D02*
X67941000Y-55913000D01*
X64176000Y-55873000D02*
X65000000Y-55873000D01*
X67080000Y-55873000D02*
X67904000Y-55873000D01*
X64214000Y-55833000D02*
X65000000Y-55833000D01*
X67080000Y-55833000D02*
X67866000Y-55833000D01*
X64255000Y-55793000D02*
X65000000Y-55793000D01*
X67080000Y-55793000D02*
X67825000Y-55793000D01*
X64297000Y-55753000D02*
X65000000Y-55753000D01*
X67080000Y-55753000D02*
X67783000Y-55753000D01*
X64341000Y-55713000D02*
X65000000Y-55713000D01*
X67080000Y-55713000D02*
X67739000Y-55713000D01*
X64387000Y-55673000D02*
X65000000Y-55673000D01*
X67080000Y-55673000D02*
X67693000Y-55673000D01*
X64435000Y-55633000D02*
X67645000Y-55633000D01*
X64486000Y-55593000D02*
X67594000Y-55593000D01*
X64540000Y-55553000D02*
X67540000Y-55553000D01*
X64597000Y-55513000D02*
X67483000Y-55513000D01*
X64657000Y-55473000D02*
X67423000Y-55473000D01*
X64721000Y-55433000D02*
X67359000Y-55433000D01*
X64789000Y-55393000D02*
X67291000Y-55393000D01*
X64862000Y-55353000D02*
X67218000Y-55353000D01*
X64942000Y-55313000D02*
X67138000Y-55313000D01*
X65029000Y-55273000D02*
X67051000Y-55273000D01*
X65125000Y-55233000D02*
X66955000Y-55233000D01*
X65235000Y-55193000D02*
X66845000Y-55193000D01*
X65363000Y-55153000D02*
X66717000Y-55153000D01*
X65522000Y-55113000D02*
X66558000Y-55113000D01*
X65756000Y-55073000D02*
X66324000Y-55073000D01*
X64565000Y-60478775D02*
X64565000Y-59978775D01*
X64315000Y-60228775D02*
X64815000Y-60228775D01*
%TO.C,C7*%
X62564000Y-57674000D02*
G75*
G03*
X62564000Y-57674000I-2620000J0D01*
G01*
X60984000Y-57674000D02*
X62524000Y-57674000D01*
X57364000Y-57674000D02*
X58904000Y-57674000D01*
X60984000Y-57634000D02*
X62524000Y-57634000D01*
X57364000Y-57634000D02*
X58904000Y-57634000D01*
X57365000Y-57594000D02*
X58904000Y-57594000D01*
X60984000Y-57594000D02*
X62523000Y-57594000D01*
X57366000Y-57554000D02*
X58904000Y-57554000D01*
X60984000Y-57554000D02*
X62522000Y-57554000D01*
X57368000Y-57514000D02*
X58904000Y-57514000D01*
X60984000Y-57514000D02*
X62520000Y-57514000D01*
X57371000Y-57474000D02*
X58904000Y-57474000D01*
X60984000Y-57474000D02*
X62517000Y-57474000D01*
X57375000Y-57434000D02*
X58904000Y-57434000D01*
X60984000Y-57434000D02*
X62513000Y-57434000D01*
X57379000Y-57394000D02*
X58904000Y-57394000D01*
X60984000Y-57394000D02*
X62509000Y-57394000D01*
X57383000Y-57354000D02*
X58904000Y-57354000D01*
X60984000Y-57354000D02*
X62505000Y-57354000D01*
X57388000Y-57314000D02*
X58904000Y-57314000D01*
X60984000Y-57314000D02*
X62500000Y-57314000D01*
X57394000Y-57274000D02*
X58904000Y-57274000D01*
X60984000Y-57274000D02*
X62494000Y-57274000D01*
X57401000Y-57234000D02*
X58904000Y-57234000D01*
X60984000Y-57234000D02*
X62487000Y-57234000D01*
X57408000Y-57194000D02*
X58904000Y-57194000D01*
X60984000Y-57194000D02*
X62480000Y-57194000D01*
X57416000Y-57154000D02*
X58904000Y-57154000D01*
X60984000Y-57154000D02*
X62472000Y-57154000D01*
X57424000Y-57114000D02*
X58904000Y-57114000D01*
X60984000Y-57114000D02*
X62464000Y-57114000D01*
X57433000Y-57074000D02*
X58904000Y-57074000D01*
X60984000Y-57074000D02*
X62455000Y-57074000D01*
X57443000Y-57034000D02*
X58904000Y-57034000D01*
X60984000Y-57034000D02*
X62445000Y-57034000D01*
X57453000Y-56994000D02*
X58904000Y-56994000D01*
X60984000Y-56994000D02*
X62435000Y-56994000D01*
X57464000Y-56953000D02*
X58904000Y-56953000D01*
X60984000Y-56953000D02*
X62424000Y-56953000D01*
X57476000Y-56913000D02*
X58904000Y-56913000D01*
X60984000Y-56913000D02*
X62412000Y-56913000D01*
X57489000Y-56873000D02*
X58904000Y-56873000D01*
X60984000Y-56873000D02*
X62399000Y-56873000D01*
X57502000Y-56833000D02*
X58904000Y-56833000D01*
X60984000Y-56833000D02*
X62386000Y-56833000D01*
X57516000Y-56793000D02*
X58904000Y-56793000D01*
X60984000Y-56793000D02*
X62372000Y-56793000D01*
X57530000Y-56753000D02*
X58904000Y-56753000D01*
X60984000Y-56753000D02*
X62358000Y-56753000D01*
X57546000Y-56713000D02*
X58904000Y-56713000D01*
X60984000Y-56713000D02*
X62342000Y-56713000D01*
X57562000Y-56673000D02*
X58904000Y-56673000D01*
X60984000Y-56673000D02*
X62326000Y-56673000D01*
X57579000Y-56633000D02*
X58904000Y-56633000D01*
X60984000Y-56633000D02*
X62309000Y-56633000D01*
X57596000Y-56593000D02*
X58904000Y-56593000D01*
X60984000Y-56593000D02*
X62292000Y-56593000D01*
X57615000Y-56553000D02*
X58904000Y-56553000D01*
X60984000Y-56553000D02*
X62273000Y-56553000D01*
X57634000Y-56513000D02*
X58904000Y-56513000D01*
X60984000Y-56513000D02*
X62254000Y-56513000D01*
X57654000Y-56473000D02*
X58904000Y-56473000D01*
X60984000Y-56473000D02*
X62234000Y-56473000D01*
X57676000Y-56433000D02*
X58904000Y-56433000D01*
X60984000Y-56433000D02*
X62212000Y-56433000D01*
X57697000Y-56393000D02*
X58904000Y-56393000D01*
X60984000Y-56393000D02*
X62191000Y-56393000D01*
X57720000Y-56353000D02*
X58904000Y-56353000D01*
X60984000Y-56353000D02*
X62168000Y-56353000D01*
X57744000Y-56313000D02*
X58904000Y-56313000D01*
X60984000Y-56313000D02*
X62144000Y-56313000D01*
X57769000Y-56273000D02*
X58904000Y-56273000D01*
X60984000Y-56273000D02*
X62119000Y-56273000D01*
X57795000Y-56233000D02*
X58904000Y-56233000D01*
X60984000Y-56233000D02*
X62093000Y-56233000D01*
X57822000Y-56193000D02*
X58904000Y-56193000D01*
X60984000Y-56193000D02*
X62066000Y-56193000D01*
X57849000Y-56153000D02*
X58904000Y-56153000D01*
X60984000Y-56153000D02*
X62039000Y-56153000D01*
X57879000Y-56113000D02*
X58904000Y-56113000D01*
X60984000Y-56113000D02*
X62009000Y-56113000D01*
X57909000Y-56073000D02*
X58904000Y-56073000D01*
X60984000Y-56073000D02*
X61979000Y-56073000D01*
X57940000Y-56033000D02*
X58904000Y-56033000D01*
X60984000Y-56033000D02*
X61948000Y-56033000D01*
X57973000Y-55993000D02*
X58904000Y-55993000D01*
X60984000Y-55993000D02*
X61915000Y-55993000D01*
X58007000Y-55953000D02*
X58904000Y-55953000D01*
X60984000Y-55953000D02*
X61881000Y-55953000D01*
X58043000Y-55913000D02*
X58904000Y-55913000D01*
X60984000Y-55913000D02*
X61845000Y-55913000D01*
X58080000Y-55873000D02*
X58904000Y-55873000D01*
X60984000Y-55873000D02*
X61808000Y-55873000D01*
X58118000Y-55833000D02*
X58904000Y-55833000D01*
X60984000Y-55833000D02*
X61770000Y-55833000D01*
X58159000Y-55793000D02*
X58904000Y-55793000D01*
X60984000Y-55793000D02*
X61729000Y-55793000D01*
X58201000Y-55753000D02*
X58904000Y-55753000D01*
X60984000Y-55753000D02*
X61687000Y-55753000D01*
X58245000Y-55713000D02*
X58904000Y-55713000D01*
X60984000Y-55713000D02*
X61643000Y-55713000D01*
X58291000Y-55673000D02*
X58904000Y-55673000D01*
X60984000Y-55673000D02*
X61597000Y-55673000D01*
X58339000Y-55633000D02*
X61549000Y-55633000D01*
X58390000Y-55593000D02*
X61498000Y-55593000D01*
X58444000Y-55553000D02*
X61444000Y-55553000D01*
X58501000Y-55513000D02*
X61387000Y-55513000D01*
X58561000Y-55473000D02*
X61327000Y-55473000D01*
X58625000Y-55433000D02*
X61263000Y-55433000D01*
X58693000Y-55393000D02*
X61195000Y-55393000D01*
X58766000Y-55353000D02*
X61122000Y-55353000D01*
X58846000Y-55313000D02*
X61042000Y-55313000D01*
X58933000Y-55273000D02*
X60955000Y-55273000D01*
X59029000Y-55233000D02*
X60859000Y-55233000D01*
X59139000Y-55193000D02*
X60749000Y-55193000D01*
X59267000Y-55153000D02*
X60621000Y-55153000D01*
X59426000Y-55113000D02*
X60462000Y-55113000D01*
X59660000Y-55073000D02*
X60228000Y-55073000D01*
X58469000Y-60478775D02*
X58469000Y-59978775D01*
X58219000Y-60228775D02*
X58719000Y-60228775D01*
%TO.C,C6*%
X51458000Y-86476000D02*
X51458000Y-83236000D01*
X53698000Y-86476000D02*
X53698000Y-83236000D01*
X51458000Y-86476000D02*
X51523000Y-86476000D01*
X53633000Y-86476000D02*
X53698000Y-86476000D01*
X51458000Y-83236000D02*
X51523000Y-83236000D01*
X53633000Y-83236000D02*
X53698000Y-83236000D01*
%TO.C,C5*%
X9802000Y-46090000D02*
X9802000Y-42850000D01*
X12042000Y-46090000D02*
X12042000Y-42850000D01*
X9802000Y-46090000D02*
X9867000Y-46090000D01*
X11977000Y-46090000D02*
X12042000Y-46090000D01*
X9802000Y-42850000D02*
X9867000Y-42850000D01*
X11977000Y-42850000D02*
X12042000Y-42850000D01*
%TO.C,C4*%
X13866000Y-46090000D02*
X13866000Y-42850000D01*
X16106000Y-46090000D02*
X16106000Y-42850000D01*
X13866000Y-46090000D02*
X13931000Y-46090000D01*
X16041000Y-46090000D02*
X16106000Y-46090000D01*
X13866000Y-42850000D02*
X13931000Y-42850000D01*
X16041000Y-42850000D02*
X16106000Y-42850000D01*
%TO.C,C3*%
X5738000Y-46090000D02*
X5738000Y-42850000D01*
X7978000Y-46090000D02*
X7978000Y-42850000D01*
X5738000Y-46090000D02*
X5803000Y-46090000D01*
X7913000Y-46090000D02*
X7978000Y-46090000D01*
X5738000Y-42850000D02*
X5803000Y-42850000D01*
X7913000Y-42850000D02*
X7978000Y-42850000D01*
%TO.C,C1*%
X51458000Y-65902000D02*
X51458000Y-62662000D01*
X53698000Y-65902000D02*
X53698000Y-62662000D01*
X51458000Y-65902000D02*
X51523000Y-65902000D01*
X53633000Y-65902000D02*
X53698000Y-65902000D01*
X51458000Y-62662000D02*
X51523000Y-62662000D01*
X53633000Y-62662000D02*
X53698000Y-62662000D01*
%TO.C,C22*%
D10*
X67429142Y-46077142D02*
X67381523Y-46124761D01*
X67238666Y-46172380D01*
X67143428Y-46172380D01*
X67000571Y-46124761D01*
X66905333Y-46029523D01*
X66857714Y-45934285D01*
X66810095Y-45743809D01*
X66810095Y-45600952D01*
X66857714Y-45410476D01*
X66905333Y-45315238D01*
X67000571Y-45220000D01*
X67143428Y-45172380D01*
X67238666Y-45172380D01*
X67381523Y-45220000D01*
X67429142Y-45267619D01*
X67810095Y-45267619D02*
X67857714Y-45220000D01*
X67952952Y-45172380D01*
X68191047Y-45172380D01*
X68286285Y-45220000D01*
X68333904Y-45267619D01*
X68381523Y-45362857D01*
X68381523Y-45458095D01*
X68333904Y-45600952D01*
X67762476Y-46172380D01*
X68381523Y-46172380D01*
X68762476Y-45267619D02*
X68810095Y-45220000D01*
X68905333Y-45172380D01*
X69143428Y-45172380D01*
X69238666Y-45220000D01*
X69286285Y-45267619D01*
X69333904Y-45362857D01*
X69333904Y-45458095D01*
X69286285Y-45600952D01*
X68714857Y-46172380D01*
X69333904Y-46172380D01*
%TO.C,C21*%
X67175142Y-40743142D02*
X67127523Y-40790761D01*
X66984666Y-40838380D01*
X66889428Y-40838380D01*
X66746571Y-40790761D01*
X66651333Y-40695523D01*
X66603714Y-40600285D01*
X66556095Y-40409809D01*
X66556095Y-40266952D01*
X66603714Y-40076476D01*
X66651333Y-39981238D01*
X66746571Y-39886000D01*
X66889428Y-39838380D01*
X66984666Y-39838380D01*
X67127523Y-39886000D01*
X67175142Y-39933619D01*
X67556095Y-39933619D02*
X67603714Y-39886000D01*
X67698952Y-39838380D01*
X67937047Y-39838380D01*
X68032285Y-39886000D01*
X68079904Y-39933619D01*
X68127523Y-40028857D01*
X68127523Y-40124095D01*
X68079904Y-40266952D01*
X67508476Y-40838380D01*
X68127523Y-40838380D01*
X69079904Y-40838380D02*
X68508476Y-40838380D01*
X68794190Y-40838380D02*
X68794190Y-39838380D01*
X68698952Y-39981238D01*
X68603714Y-40076476D01*
X68508476Y-40124095D01*
%TO.C,C2*%
X54459142Y-31408666D02*
X54506761Y-31456285D01*
X54554380Y-31599142D01*
X54554380Y-31694380D01*
X54506761Y-31837238D01*
X54411523Y-31932476D01*
X54316285Y-31980095D01*
X54125809Y-32027714D01*
X53982952Y-32027714D01*
X53792476Y-31980095D01*
X53697238Y-31932476D01*
X53602000Y-31837238D01*
X53554380Y-31694380D01*
X53554380Y-31599142D01*
X53602000Y-31456285D01*
X53649619Y-31408666D01*
X53649619Y-31027714D02*
X53602000Y-30980095D01*
X53554380Y-30884857D01*
X53554380Y-30646761D01*
X53602000Y-30551523D01*
X53649619Y-30503904D01*
X53744857Y-30456285D01*
X53840095Y-30456285D01*
X53982952Y-30503904D01*
X54554380Y-31075333D01*
X54554380Y-30456285D01*
%TO.C,U2*%
X75652380Y-43941904D02*
X76461904Y-43941904D01*
X76557142Y-43894285D01*
X76604761Y-43846666D01*
X76652380Y-43751428D01*
X76652380Y-43560952D01*
X76604761Y-43465714D01*
X76557142Y-43418095D01*
X76461904Y-43370476D01*
X75652380Y-43370476D01*
X75747619Y-42941904D02*
X75700000Y-42894285D01*
X75652380Y-42799047D01*
X75652380Y-42560952D01*
X75700000Y-42465714D01*
X75747619Y-42418095D01*
X75842857Y-42370476D01*
X75938095Y-42370476D01*
X76080952Y-42418095D01*
X76652380Y-42989523D01*
X76652380Y-42370476D01*
%TO.C,U1*%
X75144380Y-70357904D02*
X75953904Y-70357904D01*
X76049142Y-70310285D01*
X76096761Y-70262666D01*
X76144380Y-70167428D01*
X76144380Y-69976952D01*
X76096761Y-69881714D01*
X76049142Y-69834095D01*
X75953904Y-69786476D01*
X75144380Y-69786476D01*
X76144380Y-68786476D02*
X76144380Y-69357904D01*
X76144380Y-69072190D02*
X75144380Y-69072190D01*
X75287238Y-69167428D01*
X75382476Y-69262666D01*
X75430095Y-69357904D01*
%TO.C,R18*%
X75049142Y-62428380D02*
X74715809Y-61952190D01*
X74477714Y-62428380D02*
X74477714Y-61428380D01*
X74858666Y-61428380D01*
X74953904Y-61476000D01*
X75001523Y-61523619D01*
X75049142Y-61618857D01*
X75049142Y-61761714D01*
X75001523Y-61856952D01*
X74953904Y-61904571D01*
X74858666Y-61952190D01*
X74477714Y-61952190D01*
X76001523Y-62428380D02*
X75430095Y-62428380D01*
X75715809Y-62428380D02*
X75715809Y-61428380D01*
X75620571Y-61571238D01*
X75525333Y-61666476D01*
X75430095Y-61714095D01*
X76572952Y-61856952D02*
X76477714Y-61809333D01*
X76430095Y-61761714D01*
X76382476Y-61666476D01*
X76382476Y-61618857D01*
X76430095Y-61523619D01*
X76477714Y-61476000D01*
X76572952Y-61428380D01*
X76763428Y-61428380D01*
X76858666Y-61476000D01*
X76906285Y-61523619D01*
X76953904Y-61618857D01*
X76953904Y-61666476D01*
X76906285Y-61761714D01*
X76858666Y-61809333D01*
X76763428Y-61856952D01*
X76572952Y-61856952D01*
X76477714Y-61904571D01*
X76430095Y-61952190D01*
X76382476Y-62047428D01*
X76382476Y-62237904D01*
X76430095Y-62333142D01*
X76477714Y-62380761D01*
X76572952Y-62428380D01*
X76763428Y-62428380D01*
X76858666Y-62380761D01*
X76906285Y-62333142D01*
X76953904Y-62237904D01*
X76953904Y-62047428D01*
X76906285Y-61952190D01*
X76858666Y-61904571D01*
X76763428Y-61856952D01*
%TO.C,R17*%
X61412380Y-81668857D02*
X60936190Y-82002190D01*
X61412380Y-82240285D02*
X60412380Y-82240285D01*
X60412380Y-81859333D01*
X60460000Y-81764095D01*
X60507619Y-81716476D01*
X60602857Y-81668857D01*
X60745714Y-81668857D01*
X60840952Y-81716476D01*
X60888571Y-81764095D01*
X60936190Y-81859333D01*
X60936190Y-82240285D01*
X61412380Y-80716476D02*
X61412380Y-81287904D01*
X61412380Y-81002190D02*
X60412380Y-81002190D01*
X60555238Y-81097428D01*
X60650476Y-81192666D01*
X60698095Y-81287904D01*
X60412380Y-80383142D02*
X60412380Y-79716476D01*
X61412380Y-80145047D01*
%TO.C,R16*%
X61399680Y-68714857D02*
X60923490Y-69048190D01*
X61399680Y-69286285D02*
X60399680Y-69286285D01*
X60399680Y-68905333D01*
X60447300Y-68810095D01*
X60494919Y-68762476D01*
X60590157Y-68714857D01*
X60733014Y-68714857D01*
X60828252Y-68762476D01*
X60875871Y-68810095D01*
X60923490Y-68905333D01*
X60923490Y-69286285D01*
X61399680Y-67762476D02*
X61399680Y-68333904D01*
X61399680Y-68048190D02*
X60399680Y-68048190D01*
X60542538Y-68143428D01*
X60637776Y-68238666D01*
X60685395Y-68333904D01*
X60399680Y-66905333D02*
X60399680Y-67095809D01*
X60447300Y-67191047D01*
X60494919Y-67238666D01*
X60637776Y-67333904D01*
X60828252Y-67381523D01*
X61209204Y-67381523D01*
X61304442Y-67333904D01*
X61352061Y-67286285D01*
X61399680Y-67191047D01*
X61399680Y-67000571D01*
X61352061Y-66905333D01*
X61304442Y-66857714D01*
X61209204Y-66810095D01*
X60971109Y-66810095D01*
X60875871Y-66857714D01*
X60828252Y-66905333D01*
X60780633Y-67000571D01*
X60780633Y-67191047D01*
X60828252Y-67286285D01*
X60875871Y-67333904D01*
X60971109Y-67381523D01*
%TO.C,R15*%
X57335680Y-68727557D02*
X56859490Y-69060890D01*
X57335680Y-69298985D02*
X56335680Y-69298985D01*
X56335680Y-68918033D01*
X56383300Y-68822795D01*
X56430919Y-68775176D01*
X56526157Y-68727557D01*
X56669014Y-68727557D01*
X56764252Y-68775176D01*
X56811871Y-68822795D01*
X56859490Y-68918033D01*
X56859490Y-69298985D01*
X57335680Y-67775176D02*
X57335680Y-68346604D01*
X57335680Y-68060890D02*
X56335680Y-68060890D01*
X56478538Y-68156128D01*
X56573776Y-68251366D01*
X56621395Y-68346604D01*
X56335680Y-66870414D02*
X56335680Y-67346604D01*
X56811871Y-67394223D01*
X56764252Y-67346604D01*
X56716633Y-67251366D01*
X56716633Y-67013271D01*
X56764252Y-66918033D01*
X56811871Y-66870414D01*
X56907109Y-66822795D01*
X57145204Y-66822795D01*
X57240442Y-66870414D01*
X57288061Y-66918033D01*
X57335680Y-67013271D01*
X57335680Y-67251366D01*
X57288061Y-67346604D01*
X57240442Y-67394223D01*
%TO.C,R14*%
X28138380Y-35694857D02*
X27662190Y-36028190D01*
X28138380Y-36266285D02*
X27138380Y-36266285D01*
X27138380Y-35885333D01*
X27186000Y-35790095D01*
X27233619Y-35742476D01*
X27328857Y-35694857D01*
X27471714Y-35694857D01*
X27566952Y-35742476D01*
X27614571Y-35790095D01*
X27662190Y-35885333D01*
X27662190Y-36266285D01*
X28138380Y-34742476D02*
X28138380Y-35313904D01*
X28138380Y-35028190D02*
X27138380Y-35028190D01*
X27281238Y-35123428D01*
X27376476Y-35218666D01*
X27424095Y-35313904D01*
X27471714Y-33885333D02*
X28138380Y-33885333D01*
X27090761Y-34123428D02*
X27805047Y-34361523D01*
X27805047Y-33742476D01*
%TO.C,R13*%
X75303142Y-77668380D02*
X74969809Y-77192190D01*
X74731714Y-77668380D02*
X74731714Y-76668380D01*
X75112666Y-76668380D01*
X75207904Y-76716000D01*
X75255523Y-76763619D01*
X75303142Y-76858857D01*
X75303142Y-77001714D01*
X75255523Y-77096952D01*
X75207904Y-77144571D01*
X75112666Y-77192190D01*
X74731714Y-77192190D01*
X76255523Y-77668380D02*
X75684095Y-77668380D01*
X75969809Y-77668380D02*
X75969809Y-76668380D01*
X75874571Y-76811238D01*
X75779333Y-76906476D01*
X75684095Y-76954095D01*
X76588857Y-76668380D02*
X77207904Y-76668380D01*
X76874571Y-77049333D01*
X77017428Y-77049333D01*
X77112666Y-77096952D01*
X77160285Y-77144571D01*
X77207904Y-77239809D01*
X77207904Y-77477904D01*
X77160285Y-77573142D01*
X77112666Y-77620761D01*
X77017428Y-77668380D01*
X76731714Y-77668380D01*
X76636476Y-77620761D01*
X76588857Y-77573142D01*
%TO.C,R12*%
X57348380Y-81668857D02*
X56872190Y-82002190D01*
X57348380Y-82240285D02*
X56348380Y-82240285D01*
X56348380Y-81859333D01*
X56396000Y-81764095D01*
X56443619Y-81716476D01*
X56538857Y-81668857D01*
X56681714Y-81668857D01*
X56776952Y-81716476D01*
X56824571Y-81764095D01*
X56872190Y-81859333D01*
X56872190Y-82240285D01*
X57348380Y-80716476D02*
X57348380Y-81287904D01*
X57348380Y-81002190D02*
X56348380Y-81002190D01*
X56491238Y-81097428D01*
X56586476Y-81192666D01*
X56634095Y-81287904D01*
X56443619Y-80335523D02*
X56396000Y-80287904D01*
X56348380Y-80192666D01*
X56348380Y-79954571D01*
X56396000Y-79859333D01*
X56443619Y-79811714D01*
X56538857Y-79764095D01*
X56634095Y-79764095D01*
X56776952Y-79811714D01*
X57348380Y-80383142D01*
X57348380Y-79764095D01*
%TO.C,R11*%
X65476380Y-81668857D02*
X65000190Y-82002190D01*
X65476380Y-82240285D02*
X64476380Y-82240285D01*
X64476380Y-81859333D01*
X64524000Y-81764095D01*
X64571619Y-81716476D01*
X64666857Y-81668857D01*
X64809714Y-81668857D01*
X64904952Y-81716476D01*
X64952571Y-81764095D01*
X65000190Y-81859333D01*
X65000190Y-82240285D01*
X65476380Y-80716476D02*
X65476380Y-81287904D01*
X65476380Y-81002190D02*
X64476380Y-81002190D01*
X64619238Y-81097428D01*
X64714476Y-81192666D01*
X64762095Y-81287904D01*
X65476380Y-79764095D02*
X65476380Y-80335523D01*
X65476380Y-80049809D02*
X64476380Y-80049809D01*
X64619238Y-80145047D01*
X64714476Y-80240285D01*
X64762095Y-80335523D01*
%TO.C,R10*%
X65501780Y-68714857D02*
X65025590Y-69048190D01*
X65501780Y-69286285D02*
X64501780Y-69286285D01*
X64501780Y-68905333D01*
X64549400Y-68810095D01*
X64597019Y-68762476D01*
X64692257Y-68714857D01*
X64835114Y-68714857D01*
X64930352Y-68762476D01*
X64977971Y-68810095D01*
X65025590Y-68905333D01*
X65025590Y-69286285D01*
X65501780Y-67762476D02*
X65501780Y-68333904D01*
X65501780Y-68048190D02*
X64501780Y-68048190D01*
X64644638Y-68143428D01*
X64739876Y-68238666D01*
X64787495Y-68333904D01*
X64501780Y-67143428D02*
X64501780Y-67048190D01*
X64549400Y-66952952D01*
X64597019Y-66905333D01*
X64692257Y-66857714D01*
X64882733Y-66810095D01*
X65120828Y-66810095D01*
X65311304Y-66857714D01*
X65406542Y-66905333D01*
X65454161Y-66952952D01*
X65501780Y-67048190D01*
X65501780Y-67143428D01*
X65454161Y-67238666D01*
X65406542Y-67286285D01*
X65311304Y-67333904D01*
X65120828Y-67381523D01*
X64882733Y-67381523D01*
X64692257Y-67333904D01*
X64597019Y-67286285D01*
X64549400Y-67238666D01*
X64501780Y-67143428D01*
%TO.C,R9*%
X19502380Y-35218666D02*
X19026190Y-35552000D01*
X19502380Y-35790095D02*
X18502380Y-35790095D01*
X18502380Y-35409142D01*
X18550000Y-35313904D01*
X18597619Y-35266285D01*
X18692857Y-35218666D01*
X18835714Y-35218666D01*
X18930952Y-35266285D01*
X18978571Y-35313904D01*
X19026190Y-35409142D01*
X19026190Y-35790095D01*
X19502380Y-34742476D02*
X19502380Y-34552000D01*
X19454761Y-34456761D01*
X19407142Y-34409142D01*
X19264285Y-34313904D01*
X19073809Y-34266285D01*
X18692857Y-34266285D01*
X18597619Y-34313904D01*
X18550000Y-34361523D01*
X18502380Y-34456761D01*
X18502380Y-34647238D01*
X18550000Y-34742476D01*
X18597619Y-34790095D01*
X18692857Y-34837714D01*
X18930952Y-34837714D01*
X19026190Y-34790095D01*
X19073809Y-34742476D01*
X19121428Y-34647238D01*
X19121428Y-34456761D01*
X19073809Y-34361523D01*
X19026190Y-34313904D01*
X18930952Y-34266285D01*
%TO.C,R8*%
X23820380Y-35218666D02*
X23344190Y-35552000D01*
X23820380Y-35790095D02*
X22820380Y-35790095D01*
X22820380Y-35409142D01*
X22868000Y-35313904D01*
X22915619Y-35266285D01*
X23010857Y-35218666D01*
X23153714Y-35218666D01*
X23248952Y-35266285D01*
X23296571Y-35313904D01*
X23344190Y-35409142D01*
X23344190Y-35790095D01*
X23248952Y-34647238D02*
X23201333Y-34742476D01*
X23153714Y-34790095D01*
X23058476Y-34837714D01*
X23010857Y-34837714D01*
X22915619Y-34790095D01*
X22868000Y-34742476D01*
X22820380Y-34647238D01*
X22820380Y-34456761D01*
X22868000Y-34361523D01*
X22915619Y-34313904D01*
X23010857Y-34266285D01*
X23058476Y-34266285D01*
X23153714Y-34313904D01*
X23201333Y-34361523D01*
X23248952Y-34456761D01*
X23248952Y-34647238D01*
X23296571Y-34742476D01*
X23344190Y-34790095D01*
X23439428Y-34837714D01*
X23629904Y-34837714D01*
X23725142Y-34790095D01*
X23772761Y-34742476D01*
X23820380Y-34647238D01*
X23820380Y-34456761D01*
X23772761Y-34361523D01*
X23725142Y-34313904D01*
X23629904Y-34266285D01*
X23439428Y-34266285D01*
X23344190Y-34313904D01*
X23296571Y-34361523D01*
X23248952Y-34456761D01*
%TO.C,R7*%
X47331333Y-48458380D02*
X46998000Y-47982190D01*
X46759904Y-48458380D02*
X46759904Y-47458380D01*
X47140857Y-47458380D01*
X47236095Y-47506000D01*
X47283714Y-47553619D01*
X47331333Y-47648857D01*
X47331333Y-47791714D01*
X47283714Y-47886952D01*
X47236095Y-47934571D01*
X47140857Y-47982190D01*
X46759904Y-47982190D01*
X47664666Y-47458380D02*
X48331333Y-47458380D01*
X47902761Y-48458380D01*
%TO.C,R6*%
X47331333Y-44140380D02*
X46998000Y-43664190D01*
X46759904Y-44140380D02*
X46759904Y-43140380D01*
X47140857Y-43140380D01*
X47236095Y-43188000D01*
X47283714Y-43235619D01*
X47331333Y-43330857D01*
X47331333Y-43473714D01*
X47283714Y-43568952D01*
X47236095Y-43616571D01*
X47140857Y-43664190D01*
X46759904Y-43664190D01*
X48188476Y-43140380D02*
X47998000Y-43140380D01*
X47902761Y-43188000D01*
X47855142Y-43235619D01*
X47759904Y-43378476D01*
X47712285Y-43568952D01*
X47712285Y-43949904D01*
X47759904Y-44045142D01*
X47807523Y-44092761D01*
X47902761Y-44140380D01*
X48093238Y-44140380D01*
X48188476Y-44092761D01*
X48236095Y-44045142D01*
X48283714Y-43949904D01*
X48283714Y-43711809D01*
X48236095Y-43616571D01*
X48188476Y-43568952D01*
X48093238Y-43521333D01*
X47902761Y-43521333D01*
X47807523Y-43568952D01*
X47759904Y-43616571D01*
X47712285Y-43711809D01*
%TO.C,R5*%
X47696380Y-35218666D02*
X47220190Y-35552000D01*
X47696380Y-35790095D02*
X46696380Y-35790095D01*
X46696380Y-35409142D01*
X46744000Y-35313904D01*
X46791619Y-35266285D01*
X46886857Y-35218666D01*
X47029714Y-35218666D01*
X47124952Y-35266285D01*
X47172571Y-35313904D01*
X47220190Y-35409142D01*
X47220190Y-35790095D01*
X46696380Y-34313904D02*
X46696380Y-34790095D01*
X47172571Y-34837714D01*
X47124952Y-34790095D01*
X47077333Y-34694857D01*
X47077333Y-34456761D01*
X47124952Y-34361523D01*
X47172571Y-34313904D01*
X47267809Y-34266285D01*
X47505904Y-34266285D01*
X47601142Y-34313904D01*
X47648761Y-34361523D01*
X47696380Y-34456761D01*
X47696380Y-34694857D01*
X47648761Y-34790095D01*
X47601142Y-34837714D01*
%TO.C,R4*%
X43378380Y-35218666D02*
X42902190Y-35552000D01*
X43378380Y-35790095D02*
X42378380Y-35790095D01*
X42378380Y-35409142D01*
X42426000Y-35313904D01*
X42473619Y-35266285D01*
X42568857Y-35218666D01*
X42711714Y-35218666D01*
X42806952Y-35266285D01*
X42854571Y-35313904D01*
X42902190Y-35409142D01*
X42902190Y-35790095D01*
X42711714Y-34361523D02*
X43378380Y-34361523D01*
X42330761Y-34599619D02*
X43045047Y-34837714D01*
X43045047Y-34218666D01*
%TO.C,R3*%
X11374380Y-35218666D02*
X10898190Y-35552000D01*
X11374380Y-35790095D02*
X10374380Y-35790095D01*
X10374380Y-35409142D01*
X10422000Y-35313904D01*
X10469619Y-35266285D01*
X10564857Y-35218666D01*
X10707714Y-35218666D01*
X10802952Y-35266285D01*
X10850571Y-35313904D01*
X10898190Y-35409142D01*
X10898190Y-35790095D01*
X10374380Y-34885333D02*
X10374380Y-34266285D01*
X10755333Y-34599619D01*
X10755333Y-34456761D01*
X10802952Y-34361523D01*
X10850571Y-34313904D01*
X10945809Y-34266285D01*
X11183904Y-34266285D01*
X11279142Y-34313904D01*
X11326761Y-34361523D01*
X11374380Y-34456761D01*
X11374380Y-34742476D01*
X11326761Y-34837714D01*
X11279142Y-34885333D01*
%TO.C,R2*%
X15438380Y-35218666D02*
X14962190Y-35552000D01*
X15438380Y-35790095D02*
X14438380Y-35790095D01*
X14438380Y-35409142D01*
X14486000Y-35313904D01*
X14533619Y-35266285D01*
X14628857Y-35218666D01*
X14771714Y-35218666D01*
X14866952Y-35266285D01*
X14914571Y-35313904D01*
X14962190Y-35409142D01*
X14962190Y-35790095D01*
X14533619Y-34837714D02*
X14486000Y-34790095D01*
X14438380Y-34694857D01*
X14438380Y-34456761D01*
X14486000Y-34361523D01*
X14533619Y-34313904D01*
X14628857Y-34266285D01*
X14724095Y-34266285D01*
X14866952Y-34313904D01*
X15438380Y-34885333D01*
X15438380Y-34266285D01*
%TO.C,R1*%
X7310380Y-35218666D02*
X6834190Y-35552000D01*
X7310380Y-35790095D02*
X6310380Y-35790095D01*
X6310380Y-35409142D01*
X6358000Y-35313904D01*
X6405619Y-35266285D01*
X6500857Y-35218666D01*
X6643714Y-35218666D01*
X6738952Y-35266285D01*
X6786571Y-35313904D01*
X6834190Y-35409142D01*
X6834190Y-35790095D01*
X7310380Y-34266285D02*
X7310380Y-34837714D01*
X7310380Y-34552000D02*
X6310380Y-34552000D01*
X6453238Y-34647238D01*
X6548476Y-34742476D01*
X6596095Y-34837714D01*
%TO.C,M2*%
X36528476Y-46680380D02*
X36528476Y-45680380D01*
X36861809Y-46394666D01*
X37195142Y-45680380D01*
X37195142Y-46680380D01*
X37623714Y-45775619D02*
X37671333Y-45728000D01*
X37766571Y-45680380D01*
X38004666Y-45680380D01*
X38099904Y-45728000D01*
X38147523Y-45775619D01*
X38195142Y-45870857D01*
X38195142Y-45966095D01*
X38147523Y-46108952D01*
X37576095Y-46680380D01*
X38195142Y-46680380D01*
%TO.C,M1*%
X49736476Y-52776380D02*
X49736476Y-51776380D01*
X50069809Y-52490666D01*
X50403142Y-51776380D01*
X50403142Y-52776380D01*
X51403142Y-52776380D02*
X50831714Y-52776380D01*
X51117428Y-52776380D02*
X51117428Y-51776380D01*
X51022190Y-51919238D01*
X50926952Y-52014476D01*
X50831714Y-52062095D01*
%TO.C,JP2*%
X6024666Y-60412380D02*
X6024666Y-61126666D01*
X5977047Y-61269523D01*
X5881809Y-61364761D01*
X5738952Y-61412380D01*
X5643714Y-61412380D01*
X6500857Y-61412380D02*
X6500857Y-60412380D01*
X6881809Y-60412380D01*
X6977047Y-60460000D01*
X7024666Y-60507619D01*
X7072285Y-60602857D01*
X7072285Y-60745714D01*
X7024666Y-60840952D01*
X6977047Y-60888571D01*
X6881809Y-60936190D01*
X6500857Y-60936190D01*
X7453238Y-60507619D02*
X7500857Y-60460000D01*
X7596095Y-60412380D01*
X7834190Y-60412380D01*
X7929428Y-60460000D01*
X7977047Y-60507619D01*
X8024666Y-60602857D01*
X8024666Y-60698095D01*
X7977047Y-60840952D01*
X7405619Y-61412380D01*
X8024666Y-61412380D01*
%TO.C,JP1*%
X6024666Y-51522380D02*
X6024666Y-52236666D01*
X5977047Y-52379523D01*
X5881809Y-52474761D01*
X5738952Y-52522380D01*
X5643714Y-52522380D01*
X6500857Y-52522380D02*
X6500857Y-51522380D01*
X6881809Y-51522380D01*
X6977047Y-51570000D01*
X7024666Y-51617619D01*
X7072285Y-51712857D01*
X7072285Y-51855714D01*
X7024666Y-51950952D01*
X6977047Y-51998571D01*
X6881809Y-52046190D01*
X6500857Y-52046190D01*
X8024666Y-52522380D02*
X7453238Y-52522380D01*
X7738952Y-52522380D02*
X7738952Y-51522380D01*
X7643714Y-51665238D01*
X7548476Y-51760476D01*
X7453238Y-51808095D01*
%TO.C,J9*%
X98877380Y-93344761D02*
X97877380Y-93344761D01*
X97877380Y-93106666D01*
X97925000Y-92963809D01*
X98020238Y-92868571D01*
X98115476Y-92820952D01*
X98305952Y-92773333D01*
X98448809Y-92773333D01*
X98639285Y-92820952D01*
X98734523Y-92868571D01*
X98829761Y-92963809D01*
X98877380Y-93106666D01*
X98877380Y-93344761D01*
X98782142Y-91773333D02*
X98829761Y-91820952D01*
X98877380Y-91963809D01*
X98877380Y-92059047D01*
X98829761Y-92201904D01*
X98734523Y-92297142D01*
X98639285Y-92344761D01*
X98448809Y-92392380D01*
X98305952Y-92392380D01*
X98115476Y-92344761D01*
X98020238Y-92297142D01*
X97925000Y-92201904D01*
X97877380Y-92059047D01*
X97877380Y-91963809D01*
X97925000Y-91820952D01*
X97972619Y-91773333D01*
X98877380Y-90582857D02*
X97877380Y-90582857D01*
X98877380Y-90106666D02*
X97877380Y-90106666D01*
X98877380Y-89535238D01*
X97877380Y-89535238D01*
%TO.C,J8*%
X67230761Y-19518380D02*
X67802190Y-19518380D01*
X67516476Y-20518380D02*
X67516476Y-19518380D01*
X68468857Y-19994571D02*
X68135523Y-19994571D01*
X68135523Y-20518380D02*
X68135523Y-19518380D01*
X68611714Y-19518380D01*
X68849809Y-19518380D02*
X69421238Y-19518380D01*
X69135523Y-20518380D02*
X69135523Y-19518380D01*
%TO.C,J7*%
X84240666Y-95273333D02*
X84240666Y-94797142D01*
X84526380Y-95368571D02*
X83526380Y-95035238D01*
X84526380Y-94701904D01*
X83526380Y-94368571D02*
X84335904Y-94368571D01*
X84431142Y-94320952D01*
X84478761Y-94273333D01*
X84526380Y-94178095D01*
X84526380Y-93987619D01*
X84478761Y-93892380D01*
X84431142Y-93844761D01*
X84335904Y-93797142D01*
X83526380Y-93797142D01*
X84526380Y-93320952D02*
X83526380Y-93320952D01*
X83526380Y-93082857D01*
X83574000Y-92940000D01*
X83669238Y-92844761D01*
X83764476Y-92797142D01*
X83954952Y-92749523D01*
X84097809Y-92749523D01*
X84288285Y-92797142D01*
X84383523Y-92844761D01*
X84478761Y-92940000D01*
X84526380Y-93082857D01*
X84526380Y-93320952D01*
X84526380Y-92320952D02*
X83526380Y-92320952D01*
X83526380Y-91654285D02*
X83526380Y-91463809D01*
X83574000Y-91368571D01*
X83669238Y-91273333D01*
X83859714Y-91225714D01*
X84193047Y-91225714D01*
X84383523Y-91273333D01*
X84478761Y-91368571D01*
X84526380Y-91463809D01*
X84526380Y-91654285D01*
X84478761Y-91749523D01*
X84383523Y-91844761D01*
X84193047Y-91892380D01*
X83859714Y-91892380D01*
X83669238Y-91844761D01*
X83574000Y-91749523D01*
X83526380Y-91654285D01*
X83526380Y-89844761D02*
X83526380Y-89654285D01*
X83574000Y-89559047D01*
X83669238Y-89463809D01*
X83859714Y-89416190D01*
X84193047Y-89416190D01*
X84383523Y-89463809D01*
X84478761Y-89559047D01*
X84526380Y-89654285D01*
X84526380Y-89844761D01*
X84478761Y-89940000D01*
X84383523Y-90035238D01*
X84193047Y-90082857D01*
X83859714Y-90082857D01*
X83669238Y-90035238D01*
X83574000Y-89940000D01*
X83526380Y-89844761D01*
X83526380Y-88987619D02*
X84335904Y-88987619D01*
X84431142Y-88940000D01*
X84478761Y-88892380D01*
X84526380Y-88797142D01*
X84526380Y-88606666D01*
X84478761Y-88511428D01*
X84431142Y-88463809D01*
X84335904Y-88416190D01*
X83526380Y-88416190D01*
X83526380Y-88082857D02*
X83526380Y-87511428D01*
X84526380Y-87797142D02*
X83526380Y-87797142D01*
%TO.C,J6*%
X35814380Y-20470761D02*
X35957238Y-20518380D01*
X36195333Y-20518380D01*
X36290571Y-20470761D01*
X36338190Y-20423142D01*
X36385809Y-20327904D01*
X36385809Y-20232666D01*
X36338190Y-20137428D01*
X36290571Y-20089809D01*
X36195333Y-20042190D01*
X36004857Y-19994571D01*
X35909619Y-19946952D01*
X35862000Y-19899333D01*
X35814380Y-19804095D01*
X35814380Y-19708857D01*
X35862000Y-19613619D01*
X35909619Y-19566000D01*
X36004857Y-19518380D01*
X36242952Y-19518380D01*
X36385809Y-19566000D01*
X36671523Y-19518380D02*
X37242952Y-19518380D01*
X36957238Y-20518380D02*
X36957238Y-19518380D01*
X37528666Y-20232666D02*
X38004857Y-20232666D01*
X37433428Y-20518380D02*
X37766761Y-19518380D01*
X38100095Y-20518380D01*
X38433428Y-20518380D02*
X38433428Y-19518380D01*
X39004857Y-20518380D01*
X39004857Y-19518380D01*
X39481047Y-20518380D02*
X39481047Y-19518380D01*
X39719142Y-19518380D01*
X39862000Y-19566000D01*
X39957238Y-19661238D01*
X40004857Y-19756476D01*
X40052476Y-19946952D01*
X40052476Y-20089809D01*
X40004857Y-20280285D01*
X39957238Y-20375523D01*
X39862000Y-20470761D01*
X39719142Y-20518380D01*
X39481047Y-20518380D01*
X40814380Y-19994571D02*
X40957238Y-20042190D01*
X41004857Y-20089809D01*
X41052476Y-20185047D01*
X41052476Y-20327904D01*
X41004857Y-20423142D01*
X40957238Y-20470761D01*
X40862000Y-20518380D01*
X40481047Y-20518380D01*
X40481047Y-19518380D01*
X40814380Y-19518380D01*
X40909619Y-19566000D01*
X40957238Y-19613619D01*
X41004857Y-19708857D01*
X41004857Y-19804095D01*
X40957238Y-19899333D01*
X40909619Y-19946952D01*
X40814380Y-19994571D01*
X40481047Y-19994571D01*
X41671523Y-20042190D02*
X41671523Y-20518380D01*
X41338190Y-19518380D02*
X41671523Y-20042190D01*
X42004857Y-19518380D01*
%TO.C,J5*%
X44791714Y-20470761D02*
X44934571Y-20518380D01*
X45172666Y-20518380D01*
X45267904Y-20470761D01*
X45315523Y-20423142D01*
X45363142Y-20327904D01*
X45363142Y-20232666D01*
X45315523Y-20137428D01*
X45267904Y-20089809D01*
X45172666Y-20042190D01*
X44982190Y-19994571D01*
X44886952Y-19946952D01*
X44839333Y-19899333D01*
X44791714Y-19804095D01*
X44791714Y-19708857D01*
X44839333Y-19613619D01*
X44886952Y-19566000D01*
X44982190Y-19518380D01*
X45220285Y-19518380D01*
X45363142Y-19566000D01*
X46458380Y-20613619D02*
X46363142Y-20566000D01*
X46267904Y-20470761D01*
X46125047Y-20327904D01*
X46029809Y-20280285D01*
X45934571Y-20280285D01*
X45982190Y-20518380D02*
X45886952Y-20470761D01*
X45791714Y-20375523D01*
X45744095Y-20185047D01*
X45744095Y-19851714D01*
X45791714Y-19661238D01*
X45886952Y-19566000D01*
X45982190Y-19518380D01*
X46172666Y-19518380D01*
X46267904Y-19566000D01*
X46363142Y-19661238D01*
X46410761Y-19851714D01*
X46410761Y-20185047D01*
X46363142Y-20375523D01*
X46267904Y-20470761D01*
X46172666Y-20518380D01*
X45982190Y-20518380D01*
X46839333Y-19518380D02*
X46839333Y-20327904D01*
X46886952Y-20423142D01*
X46934571Y-20470761D01*
X47029809Y-20518380D01*
X47220285Y-20518380D01*
X47315523Y-20470761D01*
X47363142Y-20423142D01*
X47410761Y-20327904D01*
X47410761Y-19518380D01*
X47886952Y-19994571D02*
X48220285Y-19994571D01*
X48363142Y-20518380D02*
X47886952Y-20518380D01*
X47886952Y-19518380D01*
X48363142Y-19518380D01*
X49267904Y-20518380D02*
X48791714Y-20518380D01*
X48791714Y-19518380D01*
X50172666Y-20423142D02*
X50125047Y-20470761D01*
X49982190Y-20518380D01*
X49886952Y-20518380D01*
X49744095Y-20470761D01*
X49648857Y-20375523D01*
X49601238Y-20280285D01*
X49553619Y-20089809D01*
X49553619Y-19946952D01*
X49601238Y-19756476D01*
X49648857Y-19661238D01*
X49744095Y-19566000D01*
X49886952Y-19518380D01*
X49982190Y-19518380D01*
X50125047Y-19566000D01*
X50172666Y-19613619D01*
X50601238Y-20518380D02*
X50601238Y-19518380D01*
X50601238Y-19994571D02*
X51172666Y-19994571D01*
X51172666Y-20518380D02*
X51172666Y-19518380D01*
%TO.C,J4*%
X21812476Y-20518380D02*
X21812476Y-19518380D01*
X22145809Y-20232666D01*
X22479142Y-19518380D01*
X22479142Y-20518380D01*
X23145809Y-19518380D02*
X23336285Y-19518380D01*
X23431523Y-19566000D01*
X23526761Y-19661238D01*
X23574380Y-19851714D01*
X23574380Y-20185047D01*
X23526761Y-20375523D01*
X23431523Y-20470761D01*
X23336285Y-20518380D01*
X23145809Y-20518380D01*
X23050571Y-20470761D01*
X22955333Y-20375523D01*
X22907714Y-20185047D01*
X22907714Y-19851714D01*
X22955333Y-19661238D01*
X23050571Y-19566000D01*
X23145809Y-19518380D01*
X24002952Y-20518380D02*
X24002952Y-19518380D01*
X24241047Y-19518380D01*
X24383904Y-19566000D01*
X24479142Y-19661238D01*
X24526761Y-19756476D01*
X24574380Y-19946952D01*
X24574380Y-20089809D01*
X24526761Y-20280285D01*
X24479142Y-20375523D01*
X24383904Y-20470761D01*
X24241047Y-20518380D01*
X24002952Y-20518380D01*
X25002952Y-19994571D02*
X25336285Y-19994571D01*
X25479142Y-20518380D02*
X25002952Y-20518380D01*
X25002952Y-19518380D01*
X25479142Y-19518380D01*
%TO.C,J3*%
X30742000Y-19994571D02*
X30884857Y-20042190D01*
X30932476Y-20089809D01*
X30980095Y-20185047D01*
X30980095Y-20327904D01*
X30932476Y-20423142D01*
X30884857Y-20470761D01*
X30789619Y-20518380D01*
X30408666Y-20518380D01*
X30408666Y-19518380D01*
X30742000Y-19518380D01*
X30837238Y-19566000D01*
X30884857Y-19613619D01*
X30932476Y-19708857D01*
X30932476Y-19804095D01*
X30884857Y-19899333D01*
X30837238Y-19946952D01*
X30742000Y-19994571D01*
X30408666Y-19994571D01*
X31313428Y-19518380D02*
X31551523Y-20518380D01*
X31742000Y-19804095D01*
X31932476Y-20518380D01*
X32170571Y-19518380D01*
%TO.C,J2*%
X12906619Y-20518380D02*
X12573285Y-20042190D01*
X12335190Y-20518380D02*
X12335190Y-19518380D01*
X12716142Y-19518380D01*
X12811380Y-19566000D01*
X12859000Y-19613619D01*
X12906619Y-19708857D01*
X12906619Y-19851714D01*
X12859000Y-19946952D01*
X12811380Y-19994571D01*
X12716142Y-20042190D01*
X12335190Y-20042190D01*
X13525666Y-19518380D02*
X13716142Y-19518380D01*
X13811380Y-19566000D01*
X13906619Y-19661238D01*
X13954238Y-19851714D01*
X13954238Y-20185047D01*
X13906619Y-20375523D01*
X13811380Y-20470761D01*
X13716142Y-20518380D01*
X13525666Y-20518380D01*
X13430428Y-20470761D01*
X13335190Y-20375523D01*
X13287571Y-20185047D01*
X13287571Y-19851714D01*
X13335190Y-19661238D01*
X13430428Y-19566000D01*
X13525666Y-19518380D01*
X14239952Y-19518380D02*
X14811380Y-19518380D01*
X14525666Y-20518380D02*
X14525666Y-19518380D01*
X15097095Y-20232666D02*
X15573285Y-20232666D01*
X15001857Y-20518380D02*
X15335190Y-19518380D01*
X15668523Y-20518380D01*
X16573285Y-20518380D02*
X16239952Y-20042190D01*
X16001857Y-20518380D02*
X16001857Y-19518380D01*
X16382809Y-19518380D01*
X16478047Y-19566000D01*
X16525666Y-19613619D01*
X16573285Y-19708857D01*
X16573285Y-19851714D01*
X16525666Y-19946952D01*
X16478047Y-19994571D01*
X16382809Y-20042190D01*
X16001857Y-20042190D01*
X17192333Y-20042190D02*
X17192333Y-20518380D01*
X16859000Y-19518380D02*
X17192333Y-20042190D01*
X17525666Y-19518380D01*
%TO.C,J1*%
X64206380Y-91431904D02*
X63730190Y-91765238D01*
X64206380Y-92003333D02*
X63206380Y-92003333D01*
X63206380Y-91622380D01*
X63254000Y-91527142D01*
X63301619Y-91479523D01*
X63396857Y-91431904D01*
X63539714Y-91431904D01*
X63634952Y-91479523D01*
X63682571Y-91527142D01*
X63730190Y-91622380D01*
X63730190Y-92003333D01*
X63682571Y-90670000D02*
X63682571Y-91003333D01*
X64206380Y-91003333D02*
X63206380Y-91003333D01*
X63206380Y-90527142D01*
X64206380Y-89384285D02*
X63206380Y-89384285D01*
X64206380Y-88908095D02*
X63206380Y-88908095D01*
X64206380Y-88336666D01*
X63206380Y-88336666D01*
%TO.C,C20*%
X83863142Y-83938857D02*
X83910761Y-83986476D01*
X83958380Y-84129333D01*
X83958380Y-84224571D01*
X83910761Y-84367428D01*
X83815523Y-84462666D01*
X83720285Y-84510285D01*
X83529809Y-84557904D01*
X83386952Y-84557904D01*
X83196476Y-84510285D01*
X83101238Y-84462666D01*
X83006000Y-84367428D01*
X82958380Y-84224571D01*
X82958380Y-84129333D01*
X83006000Y-83986476D01*
X83053619Y-83938857D01*
X83053619Y-83557904D02*
X83006000Y-83510285D01*
X82958380Y-83415047D01*
X82958380Y-83176952D01*
X83006000Y-83081714D01*
X83053619Y-83034095D01*
X83148857Y-82986476D01*
X83244095Y-82986476D01*
X83386952Y-83034095D01*
X83958380Y-83605523D01*
X83958380Y-82986476D01*
X82958380Y-82367428D02*
X82958380Y-82272190D01*
X83006000Y-82176952D01*
X83053619Y-82129333D01*
X83148857Y-82081714D01*
X83339333Y-82034095D01*
X83577428Y-82034095D01*
X83767904Y-82081714D01*
X83863142Y-82129333D01*
X83910761Y-82176952D01*
X83958380Y-82272190D01*
X83958380Y-82367428D01*
X83910761Y-82462666D01*
X83863142Y-82510285D01*
X83767904Y-82557904D01*
X83577428Y-82605523D01*
X83339333Y-82605523D01*
X83148857Y-82557904D01*
X83053619Y-82510285D01*
X83006000Y-82462666D01*
X82958380Y-82367428D01*
%TO.C,C19*%
X68683142Y-71254857D02*
X68730761Y-71302476D01*
X68778380Y-71445333D01*
X68778380Y-71540571D01*
X68730761Y-71683428D01*
X68635523Y-71778666D01*
X68540285Y-71826285D01*
X68349809Y-71873904D01*
X68206952Y-71873904D01*
X68016476Y-71826285D01*
X67921238Y-71778666D01*
X67826000Y-71683428D01*
X67778380Y-71540571D01*
X67778380Y-71445333D01*
X67826000Y-71302476D01*
X67873619Y-71254857D01*
X68778380Y-70302476D02*
X68778380Y-70873904D01*
X68778380Y-70588190D02*
X67778380Y-70588190D01*
X67921238Y-70683428D01*
X68016476Y-70778666D01*
X68064095Y-70873904D01*
X68778380Y-69826285D02*
X68778380Y-69635809D01*
X68730761Y-69540571D01*
X68683142Y-69492952D01*
X68540285Y-69397714D01*
X68349809Y-69350095D01*
X67968857Y-69350095D01*
X67873619Y-69397714D01*
X67826000Y-69445333D01*
X67778380Y-69540571D01*
X67778380Y-69731047D01*
X67826000Y-69826285D01*
X67873619Y-69873904D01*
X67968857Y-69921523D01*
X68206952Y-69921523D01*
X68302190Y-69873904D01*
X68349809Y-69826285D01*
X68397428Y-69731047D01*
X68397428Y-69540571D01*
X68349809Y-69445333D01*
X68302190Y-69397714D01*
X68206952Y-69350095D01*
%TO.C,C18*%
X86427142Y-67170857D02*
X86474761Y-67218476D01*
X86522380Y-67361333D01*
X86522380Y-67456571D01*
X86474761Y-67599428D01*
X86379523Y-67694666D01*
X86284285Y-67742285D01*
X86093809Y-67789904D01*
X85950952Y-67789904D01*
X85760476Y-67742285D01*
X85665238Y-67694666D01*
X85570000Y-67599428D01*
X85522380Y-67456571D01*
X85522380Y-67361333D01*
X85570000Y-67218476D01*
X85617619Y-67170857D01*
X86522380Y-66218476D02*
X86522380Y-66789904D01*
X86522380Y-66504190D02*
X85522380Y-66504190D01*
X85665238Y-66599428D01*
X85760476Y-66694666D01*
X85808095Y-66789904D01*
X85950952Y-65647047D02*
X85903333Y-65742285D01*
X85855714Y-65789904D01*
X85760476Y-65837523D01*
X85712857Y-65837523D01*
X85617619Y-65789904D01*
X85570000Y-65742285D01*
X85522380Y-65647047D01*
X85522380Y-65456571D01*
X85570000Y-65361333D01*
X85617619Y-65313714D01*
X85712857Y-65266095D01*
X85760476Y-65266095D01*
X85855714Y-65313714D01*
X85903333Y-65361333D01*
X85950952Y-65456571D01*
X85950952Y-65647047D01*
X85998571Y-65742285D01*
X86046190Y-65789904D01*
X86141428Y-65837523D01*
X86331904Y-65837523D01*
X86427142Y-65789904D01*
X86474761Y-65742285D01*
X86522380Y-65647047D01*
X86522380Y-65456571D01*
X86474761Y-65361333D01*
X86427142Y-65313714D01*
X86331904Y-65266095D01*
X86141428Y-65266095D01*
X86046190Y-65313714D01*
X85998571Y-65361333D01*
X85950952Y-65456571D01*
%TO.C,C17*%
X50685142Y-77878857D02*
X50732761Y-77926476D01*
X50780380Y-78069333D01*
X50780380Y-78164571D01*
X50732761Y-78307428D01*
X50637523Y-78402666D01*
X50542285Y-78450285D01*
X50351809Y-78497904D01*
X50208952Y-78497904D01*
X50018476Y-78450285D01*
X49923238Y-78402666D01*
X49828000Y-78307428D01*
X49780380Y-78164571D01*
X49780380Y-78069333D01*
X49828000Y-77926476D01*
X49875619Y-77878857D01*
X50780380Y-76926476D02*
X50780380Y-77497904D01*
X50780380Y-77212190D02*
X49780380Y-77212190D01*
X49923238Y-77307428D01*
X50018476Y-77402666D01*
X50066095Y-77497904D01*
X49780380Y-76593142D02*
X49780380Y-75926476D01*
X50780380Y-76355047D01*
%TO.C,C16*%
X30075142Y-45092857D02*
X30122761Y-45140476D01*
X30170380Y-45283333D01*
X30170380Y-45378571D01*
X30122761Y-45521428D01*
X30027523Y-45616666D01*
X29932285Y-45664285D01*
X29741809Y-45711904D01*
X29598952Y-45711904D01*
X29408476Y-45664285D01*
X29313238Y-45616666D01*
X29218000Y-45521428D01*
X29170380Y-45378571D01*
X29170380Y-45283333D01*
X29218000Y-45140476D01*
X29265619Y-45092857D01*
X30170380Y-44140476D02*
X30170380Y-44711904D01*
X30170380Y-44426190D02*
X29170380Y-44426190D01*
X29313238Y-44521428D01*
X29408476Y-44616666D01*
X29456095Y-44711904D01*
X29170380Y-43283333D02*
X29170380Y-43473809D01*
X29218000Y-43569047D01*
X29265619Y-43616666D01*
X29408476Y-43711904D01*
X29598952Y-43759523D01*
X29979904Y-43759523D01*
X30075142Y-43711904D01*
X30122761Y-43664285D01*
X30170380Y-43569047D01*
X30170380Y-43378571D01*
X30122761Y-43283333D01*
X30075142Y-43235714D01*
X29979904Y-43188095D01*
X29741809Y-43188095D01*
X29646571Y-43235714D01*
X29598952Y-43283333D01*
X29551333Y-43378571D01*
X29551333Y-43569047D01*
X29598952Y-43664285D01*
X29646571Y-43711904D01*
X29741809Y-43759523D01*
%TO.C,C15*%
X36679142Y-31884857D02*
X36726761Y-31932476D01*
X36774380Y-32075333D01*
X36774380Y-32170571D01*
X36726761Y-32313428D01*
X36631523Y-32408666D01*
X36536285Y-32456285D01*
X36345809Y-32503904D01*
X36202952Y-32503904D01*
X36012476Y-32456285D01*
X35917238Y-32408666D01*
X35822000Y-32313428D01*
X35774380Y-32170571D01*
X35774380Y-32075333D01*
X35822000Y-31932476D01*
X35869619Y-31884857D01*
X36774380Y-30932476D02*
X36774380Y-31503904D01*
X36774380Y-31218190D02*
X35774380Y-31218190D01*
X35917238Y-31313428D01*
X36012476Y-31408666D01*
X36060095Y-31503904D01*
X35774380Y-30027714D02*
X35774380Y-30503904D01*
X36250571Y-30551523D01*
X36202952Y-30503904D01*
X36155333Y-30408666D01*
X36155333Y-30170571D01*
X36202952Y-30075333D01*
X36250571Y-30027714D01*
X36345809Y-29980095D01*
X36583904Y-29980095D01*
X36679142Y-30027714D01*
X36726761Y-30075333D01*
X36774380Y-30170571D01*
X36774380Y-30408666D01*
X36726761Y-30503904D01*
X36679142Y-30551523D01*
%TO.C,C14*%
X75735142Y-83938857D02*
X75782761Y-83986476D01*
X75830380Y-84129333D01*
X75830380Y-84224571D01*
X75782761Y-84367428D01*
X75687523Y-84462666D01*
X75592285Y-84510285D01*
X75401809Y-84557904D01*
X75258952Y-84557904D01*
X75068476Y-84510285D01*
X74973238Y-84462666D01*
X74878000Y-84367428D01*
X74830380Y-84224571D01*
X74830380Y-84129333D01*
X74878000Y-83986476D01*
X74925619Y-83938857D01*
X75830380Y-82986476D02*
X75830380Y-83557904D01*
X75830380Y-83272190D02*
X74830380Y-83272190D01*
X74973238Y-83367428D01*
X75068476Y-83462666D01*
X75116095Y-83557904D01*
X75163714Y-82129333D02*
X75830380Y-82129333D01*
X74782761Y-82367428D02*
X75497047Y-82605523D01*
X75497047Y-81986476D01*
%TO.C,C13*%
X43025142Y-96877142D02*
X42977523Y-96924761D01*
X42834666Y-96972380D01*
X42739428Y-96972380D01*
X42596571Y-96924761D01*
X42501333Y-96829523D01*
X42453714Y-96734285D01*
X42406095Y-96543809D01*
X42406095Y-96400952D01*
X42453714Y-96210476D01*
X42501333Y-96115238D01*
X42596571Y-96020000D01*
X42739428Y-95972380D01*
X42834666Y-95972380D01*
X42977523Y-96020000D01*
X43025142Y-96067619D01*
X43977523Y-96972380D02*
X43406095Y-96972380D01*
X43691809Y-96972380D02*
X43691809Y-95972380D01*
X43596571Y-96115238D01*
X43501333Y-96210476D01*
X43406095Y-96258095D01*
X44310857Y-95972380D02*
X44929904Y-95972380D01*
X44596571Y-96353333D01*
X44739428Y-96353333D01*
X44834666Y-96400952D01*
X44882285Y-96448571D01*
X44929904Y-96543809D01*
X44929904Y-96781904D01*
X44882285Y-96877142D01*
X44834666Y-96924761D01*
X44739428Y-96972380D01*
X44453714Y-96972380D01*
X44358476Y-96924761D01*
X44310857Y-96877142D01*
%TO.C,C12*%
X4675142Y-90284857D02*
X4722761Y-90332476D01*
X4770380Y-90475333D01*
X4770380Y-90570571D01*
X4722761Y-90713428D01*
X4627523Y-90808666D01*
X4532285Y-90856285D01*
X4341809Y-90903904D01*
X4198952Y-90903904D01*
X4008476Y-90856285D01*
X3913238Y-90808666D01*
X3818000Y-90713428D01*
X3770380Y-90570571D01*
X3770380Y-90475333D01*
X3818000Y-90332476D01*
X3865619Y-90284857D01*
X4770380Y-89332476D02*
X4770380Y-89903904D01*
X4770380Y-89618190D02*
X3770380Y-89618190D01*
X3913238Y-89713428D01*
X4008476Y-89808666D01*
X4056095Y-89903904D01*
X3865619Y-88951523D02*
X3818000Y-88903904D01*
X3770380Y-88808666D01*
X3770380Y-88570571D01*
X3818000Y-88475333D01*
X3865619Y-88427714D01*
X3960857Y-88380095D01*
X4056095Y-88380095D01*
X4198952Y-88427714D01*
X4770380Y-88999142D01*
X4770380Y-88380095D01*
%TO.C,C11*%
X86463142Y-73286857D02*
X86510761Y-73334476D01*
X86558380Y-73477333D01*
X86558380Y-73572571D01*
X86510761Y-73715428D01*
X86415523Y-73810666D01*
X86320285Y-73858285D01*
X86129809Y-73905904D01*
X85986952Y-73905904D01*
X85796476Y-73858285D01*
X85701238Y-73810666D01*
X85606000Y-73715428D01*
X85558380Y-73572571D01*
X85558380Y-73477333D01*
X85606000Y-73334476D01*
X85653619Y-73286857D01*
X86558380Y-72334476D02*
X86558380Y-72905904D01*
X86558380Y-72620190D02*
X85558380Y-72620190D01*
X85701238Y-72715428D01*
X85796476Y-72810666D01*
X85844095Y-72905904D01*
X86558380Y-71382095D02*
X86558380Y-71953523D01*
X86558380Y-71667809D02*
X85558380Y-71667809D01*
X85701238Y-71763047D01*
X85796476Y-71858285D01*
X85844095Y-71953523D01*
%TO.C,C10*%
X21657142Y-45072857D02*
X21704761Y-45120476D01*
X21752380Y-45263333D01*
X21752380Y-45358571D01*
X21704761Y-45501428D01*
X21609523Y-45596666D01*
X21514285Y-45644285D01*
X21323809Y-45691904D01*
X21180952Y-45691904D01*
X20990476Y-45644285D01*
X20895238Y-45596666D01*
X20800000Y-45501428D01*
X20752380Y-45358571D01*
X20752380Y-45263333D01*
X20800000Y-45120476D01*
X20847619Y-45072857D01*
X21752380Y-44120476D02*
X21752380Y-44691904D01*
X21752380Y-44406190D02*
X20752380Y-44406190D01*
X20895238Y-44501428D01*
X20990476Y-44596666D01*
X21038095Y-44691904D01*
X20752380Y-43501428D02*
X20752380Y-43406190D01*
X20800000Y-43310952D01*
X20847619Y-43263333D01*
X20942857Y-43215714D01*
X21133333Y-43168095D01*
X21371428Y-43168095D01*
X21561904Y-43215714D01*
X21657142Y-43263333D01*
X21704761Y-43310952D01*
X21752380Y-43406190D01*
X21752380Y-43501428D01*
X21704761Y-43596666D01*
X21657142Y-43644285D01*
X21561904Y-43691904D01*
X21371428Y-43739523D01*
X21133333Y-43739523D01*
X20942857Y-43691904D01*
X20847619Y-43644285D01*
X20800000Y-43596666D01*
X20752380Y-43501428D01*
%TO.C,C9*%
X25975142Y-44596666D02*
X26022761Y-44644285D01*
X26070380Y-44787142D01*
X26070380Y-44882380D01*
X26022761Y-45025238D01*
X25927523Y-45120476D01*
X25832285Y-45168095D01*
X25641809Y-45215714D01*
X25498952Y-45215714D01*
X25308476Y-45168095D01*
X25213238Y-45120476D01*
X25118000Y-45025238D01*
X25070380Y-44882380D01*
X25070380Y-44787142D01*
X25118000Y-44644285D01*
X25165619Y-44596666D01*
X26070380Y-44120476D02*
X26070380Y-43930000D01*
X26022761Y-43834761D01*
X25975142Y-43787142D01*
X25832285Y-43691904D01*
X25641809Y-43644285D01*
X25260857Y-43644285D01*
X25165619Y-43691904D01*
X25118000Y-43739523D01*
X25070380Y-43834761D01*
X25070380Y-44025238D01*
X25118000Y-44120476D01*
X25165619Y-44168095D01*
X25260857Y-44215714D01*
X25498952Y-44215714D01*
X25594190Y-44168095D01*
X25641809Y-44120476D01*
X25689428Y-44025238D01*
X25689428Y-43834761D01*
X25641809Y-43739523D01*
X25594190Y-43691904D01*
X25498952Y-43644285D01*
%TO.C,C8*%
X70270642Y-57840666D02*
X70318261Y-57888285D01*
X70365880Y-58031142D01*
X70365880Y-58126380D01*
X70318261Y-58269238D01*
X70223023Y-58364476D01*
X70127785Y-58412095D01*
X69937309Y-58459714D01*
X69794452Y-58459714D01*
X69603976Y-58412095D01*
X69508738Y-58364476D01*
X69413500Y-58269238D01*
X69365880Y-58126380D01*
X69365880Y-58031142D01*
X69413500Y-57888285D01*
X69461119Y-57840666D01*
X69794452Y-57269238D02*
X69746833Y-57364476D01*
X69699214Y-57412095D01*
X69603976Y-57459714D01*
X69556357Y-57459714D01*
X69461119Y-57412095D01*
X69413500Y-57364476D01*
X69365880Y-57269238D01*
X69365880Y-57078761D01*
X69413500Y-56983523D01*
X69461119Y-56935904D01*
X69556357Y-56888285D01*
X69603976Y-56888285D01*
X69699214Y-56935904D01*
X69746833Y-56983523D01*
X69794452Y-57078761D01*
X69794452Y-57269238D01*
X69842071Y-57364476D01*
X69889690Y-57412095D01*
X69984928Y-57459714D01*
X70175404Y-57459714D01*
X70270642Y-57412095D01*
X70318261Y-57364476D01*
X70365880Y-57269238D01*
X70365880Y-57078761D01*
X70318261Y-56983523D01*
X70270642Y-56935904D01*
X70175404Y-56888285D01*
X69984928Y-56888285D01*
X69889690Y-56935904D01*
X69842071Y-56983523D01*
X69794452Y-57078761D01*
%TO.C,C7*%
X56551142Y-57840666D02*
X56598761Y-57888285D01*
X56646380Y-58031142D01*
X56646380Y-58126380D01*
X56598761Y-58269238D01*
X56503523Y-58364476D01*
X56408285Y-58412095D01*
X56217809Y-58459714D01*
X56074952Y-58459714D01*
X55884476Y-58412095D01*
X55789238Y-58364476D01*
X55694000Y-58269238D01*
X55646380Y-58126380D01*
X55646380Y-58031142D01*
X55694000Y-57888285D01*
X55741619Y-57840666D01*
X55646380Y-57507333D02*
X55646380Y-56840666D01*
X56646380Y-57269238D01*
%TO.C,C6*%
X50685142Y-85022666D02*
X50732761Y-85070285D01*
X50780380Y-85213142D01*
X50780380Y-85308380D01*
X50732761Y-85451238D01*
X50637523Y-85546476D01*
X50542285Y-85594095D01*
X50351809Y-85641714D01*
X50208952Y-85641714D01*
X50018476Y-85594095D01*
X49923238Y-85546476D01*
X49828000Y-85451238D01*
X49780380Y-85308380D01*
X49780380Y-85213142D01*
X49828000Y-85070285D01*
X49875619Y-85022666D01*
X49780380Y-84165523D02*
X49780380Y-84356000D01*
X49828000Y-84451238D01*
X49875619Y-84498857D01*
X50018476Y-84594095D01*
X50208952Y-84641714D01*
X50589904Y-84641714D01*
X50685142Y-84594095D01*
X50732761Y-84546476D01*
X50780380Y-84451238D01*
X50780380Y-84260761D01*
X50732761Y-84165523D01*
X50685142Y-84117904D01*
X50589904Y-84070285D01*
X50351809Y-84070285D01*
X50256571Y-84117904D01*
X50208952Y-84165523D01*
X50161333Y-84260761D01*
X50161333Y-84451238D01*
X50208952Y-84546476D01*
X50256571Y-84594095D01*
X50351809Y-84641714D01*
%TO.C,C5*%
X13311142Y-44616666D02*
X13358761Y-44664285D01*
X13406380Y-44807142D01*
X13406380Y-44902380D01*
X13358761Y-45045238D01*
X13263523Y-45140476D01*
X13168285Y-45188095D01*
X12977809Y-45235714D01*
X12834952Y-45235714D01*
X12644476Y-45188095D01*
X12549238Y-45140476D01*
X12454000Y-45045238D01*
X12406380Y-44902380D01*
X12406380Y-44807142D01*
X12454000Y-44664285D01*
X12501619Y-44616666D01*
X12406380Y-43711904D02*
X12406380Y-44188095D01*
X12882571Y-44235714D01*
X12834952Y-44188095D01*
X12787333Y-44092857D01*
X12787333Y-43854761D01*
X12834952Y-43759523D01*
X12882571Y-43711904D01*
X12977809Y-43664285D01*
X13215904Y-43664285D01*
X13311142Y-43711904D01*
X13358761Y-43759523D01*
X13406380Y-43854761D01*
X13406380Y-44092857D01*
X13358761Y-44188095D01*
X13311142Y-44235714D01*
%TO.C,C4*%
X17375142Y-44616666D02*
X17422761Y-44664285D01*
X17470380Y-44807142D01*
X17470380Y-44902380D01*
X17422761Y-45045238D01*
X17327523Y-45140476D01*
X17232285Y-45188095D01*
X17041809Y-45235714D01*
X16898952Y-45235714D01*
X16708476Y-45188095D01*
X16613238Y-45140476D01*
X16518000Y-45045238D01*
X16470380Y-44902380D01*
X16470380Y-44807142D01*
X16518000Y-44664285D01*
X16565619Y-44616666D01*
X16803714Y-43759523D02*
X17470380Y-43759523D01*
X16422761Y-43997619D02*
X17137047Y-44235714D01*
X17137047Y-43616666D01*
%TO.C,C3*%
X9247142Y-44616666D02*
X9294761Y-44664285D01*
X9342380Y-44807142D01*
X9342380Y-44902380D01*
X9294761Y-45045238D01*
X9199523Y-45140476D01*
X9104285Y-45188095D01*
X8913809Y-45235714D01*
X8770952Y-45235714D01*
X8580476Y-45188095D01*
X8485238Y-45140476D01*
X8390000Y-45045238D01*
X8342380Y-44902380D01*
X8342380Y-44807142D01*
X8390000Y-44664285D01*
X8437619Y-44616666D01*
X8342380Y-44283333D02*
X8342380Y-43664285D01*
X8723333Y-43997619D01*
X8723333Y-43854761D01*
X8770952Y-43759523D01*
X8818571Y-43711904D01*
X8913809Y-43664285D01*
X9151904Y-43664285D01*
X9247142Y-43711904D01*
X9294761Y-43759523D01*
X9342380Y-43854761D01*
X9342380Y-44140476D01*
X9294761Y-44235714D01*
X9247142Y-44283333D01*
%TO.C,C1*%
X50685142Y-64448666D02*
X50732761Y-64496285D01*
X50780380Y-64639142D01*
X50780380Y-64734380D01*
X50732761Y-64877238D01*
X50637523Y-64972476D01*
X50542285Y-65020095D01*
X50351809Y-65067714D01*
X50208952Y-65067714D01*
X50018476Y-65020095D01*
X49923238Y-64972476D01*
X49828000Y-64877238D01*
X49780380Y-64734380D01*
X49780380Y-64639142D01*
X49828000Y-64496285D01*
X49875619Y-64448666D01*
X50780380Y-63496285D02*
X50780380Y-64067714D01*
X50780380Y-63782000D02*
X49780380Y-63782000D01*
X49923238Y-63877238D01*
X50018476Y-63972476D01*
X50066095Y-64067714D01*
%TD*%
M02*
