M48
INCH,TZ
T1C0.0157
T2C0.0236
T3C0.0300
T4C0.0315
T5C0.0354
T6C0.0374
T7C0.0394
T8C0.0433
T9C0.0469
T10C0.0472
T11C0.0787
T12C0.0866
T13C0.1378
%
G90
G05
T1
X11100Y-27600
X11300Y-24200
X12400Y-22000
X12400Y-23500
X12400Y-24900
X12400Y-26400
X12400Y-27700
X13900Y-20200
X13900Y-21000
X17200Y-30000
X17300Y-30600
X17300Y-31400
X17300Y-32100
X17700Y-32700
X18100Y-30600
X18100Y-31400
X18100Y-33200
X18200Y-30000
X18300Y-32100
X18700Y-32500
X18700Y-33400
X18800Y-36500
X18800Y-37100
X18800Y-37700
X19300Y-32500
X19300Y-33400
X19500Y-37700
X19900Y-32500
X20100Y-34500
X20400Y-32100
X20900Y-34500
X21000Y-32100
X21500Y-32800
X21500Y-33400
X21500Y-34000
X21500Y-34500
X23075Y-14500
X23075Y-16500
X23075Y-18500
X23075Y-20425
X25000Y-14500
X25000Y-16500
X25000Y-18500
X25000Y-20500
X27000Y-12500
X27000Y-14500
X27000Y-16500
X27000Y-18500
X27000Y-20500
X33000Y-10500
X33000Y-12500
X33000Y-14500
X33000Y-18500
X33000Y-20500
X33000Y-22500
X33000Y-24500
X37500Y-10500
X37500Y-12500
X37500Y-14500
X37500Y-16500
X37500Y-18500
X37500Y-20500
X37500Y-22500
X37500Y-24500
T3
X4800Y-21700
X4800Y-22700
X4800Y-23700
X4800Y-24700
X4800Y-25700
X4800Y-26700
X4800Y-27700
X4800Y-28700
X4800Y-29700
X4800Y-30700
X4800Y-31700
X4800Y-32700
X4800Y-33700
X4800Y-34700
X4800Y-35700
X14800Y-21700
X14800Y-22700
X14800Y-23700
X14800Y-24700
X14800Y-25700
X14800Y-26700
X14800Y-27700
X14800Y-28700
X14800Y-29700
X14800Y-30700
X14800Y-31700
X14800Y-32700
X14800Y-33700
X14800Y-34700
X14800Y-35700
T4
X2600Y-34800
X2600Y-35784
X2700Y-11800
X2700Y-15800
X2700Y-17016
X2700Y-18000
X4300Y-11800
X4300Y-15800
X4300Y-17016
X4300Y-18000
X5900Y-11800
X5900Y-15800
X5900Y-17016
X5900Y-18000
X7500Y-11800
X7500Y-15800
X7500Y-17000
X7500Y-17984
X9200Y-11800
X9200Y-15800
X9200Y-17000
X9200Y-17984
X10900Y-11800
X10900Y-15800
X10900Y-17000
X10900Y-17984
X15200Y-11800
X15200Y-12784
X16700Y-17200
X16700Y-18900
X16700Y-37100
X16900Y-11800
X16900Y-15800
X17684Y-37100
X18600Y-11800
X18600Y-15800
X20400Y-11816
X20400Y-12800
X20700Y-17200
X20700Y-18900
X20700Y-24816
X20700Y-25800
X20700Y-29916
X20700Y-30900
X20700Y-32916
X20700Y-33900
X22400Y-24800
X22400Y-28800
X22400Y-29900
X22400Y-33900
X23600Y-22313
X23600Y-23100
X24000Y-24800
X24000Y-28800
X24000Y-29900
X24000Y-33900
X25600Y-24800
X25600Y-28800
X25600Y-29900
X25600Y-33900
X26000Y-22313
X26000Y-23100
X26900Y-25700
X26900Y-26684
X27800Y-24400
X27900Y-30400
X28016Y-15900
X28200Y-32400
X28200Y-33187
X28213Y-18000
X28300Y-25900
X28300Y-28900
X29000Y-15900
X29000Y-18000
X29300Y-25900
X29300Y-28900
X30300Y-25900
X30300Y-28900
X31300Y-25900
X31300Y-28900
X31400Y-32400
X31400Y-33187
X31800Y-24400
X31900Y-30400
X33000Y-25700
X33000Y-26684
X33000Y-28116
X33000Y-29100
T5
X22275Y-37175
T6
X17702Y-22391
X17702Y-23179
X17702Y-23966
X17702Y-24754
X17702Y-25541
X17702Y-26328
X17702Y-27116
X17702Y-27903
X17702Y-28691
X17702Y-29478
T7
X2700Y-21700
X2700Y-22700
X2700Y-25100
X2700Y-26100
X2700Y-27100
X22700Y-9500
X23700Y-9500
X24700Y-9500
X25700Y-9500
X26700Y-9500
X27700Y-9500
X28700Y-9500
X29700Y-9500
X30700Y-9500
T8
X31650Y-15915
X31650Y-16915
X31650Y-17915
T9
X2900Y-9500
X3900Y-9500
X4900Y-9500
X5900Y-9500
X6900Y-9500
X8800Y-9500
X9800Y-9500
X11800Y-9500
X12800Y-9500
X14800Y-9500
X15800Y-9500
X17800Y-9500
X18800Y-9500
X19800Y-9500
T10
X27550Y-35050
X29125Y-36624
X30700Y-35542
T11
X29100Y-12130
X29100Y-21500
T12
X20700Y-35600
X20700Y-38750
X23850Y-35600
X23850Y-38750
T13
X1250Y-8380
X1250Y-38000
X38060Y-8380
X38250Y-38000
T2
G00X18213Y-21171
M15
G01X17190Y-21171
M16
G05
G00X18213Y-35147
M15
G01X17190Y-35147
M16
G05
T7
G00X35106Y-34000
M15
G01X35894Y-34000
M16
G05
G00X35106Y-36362
M15
G01X35894Y-36362
M16
G05
G00X37350Y-35575
M15
G01X37350Y-34787
M16
G05
T0
M30
